<?xml version="1.0" encoding="utf-8"?>
<!-- Generator: Adobe Illustrator 15.1.0, SVG Export Plug-In . SVG Version: 6.00 Build 0)  -->
<!DOCTYPE svg PUBLIC "-//W3C//DTD SVG 1.1//EN" "http://www.w3.org/Graphics/SVG/1.1/DTD/svg11.dtd">
<svg version="1.1" id="Capa_1" xmlns="http://www.w3.org/2000/svg" xmlns:xlink="http://www.w3.org/1999/xlink" x="0px" y="0px"
	 width="155.906px" height="198.425px" viewBox="0 0 155.906 198.425" enable-background="new 0 0 155.906 198.425"
	 xml:space="preserve">
<g>
	<defs>
		<rect id="SVGID_1_" x="2.674" y="14.882" width="152.523" height="166.514"/>
	</defs>
	<clipPath id="SVGID_2_">
		<use xlink:href="#SVGID_1_"  overflow="visible"/>
	</clipPath>
	<path clip-path="url(#SVGID_2_)" fill="#FF0000" d="M265.541,15.013C264.938-0.041,252.483-9.57,241.218-9.024
		c-20.262,1.667-33.417,32.202-15.499,48.18C243.885,55.344,266.315,34.426,265.541,15.013 M222.333,8.758
		c0.173,11.209,3.311,19.944,11.582,32.246C220.256,34.797,217.751,20.085,222.333,8.758 M241.919,42.318
		c-1.743,0.112-3.162,0.013-4.899-0.347c-0.525-5.215-0.859-11.73,1.768-23.089c4.774,12.363,10.031,21.427,10.068,21.477
		C247.964,40.786,245.241,42.082,241.919,42.318 M241.993,4.126c2.226-0.328,4.755-0.7,3.459-2.133
		c-0.167-0.18-11.916,0.986-12.027,1.005c-0.905,0.155-1.06,1.215-1.067,1.227c-0.093,0.837,0.062,0.825,2.604,0.676
		c0.676,3.615,0.979,5.264,2.641,10.546c-1.203,4.985-2.442,10.137-2.609,18.11c-5.357-10.658-7.502-18.061-7.905-27.317
		c0.757-0.459,1.772-0.279,2.443-0.967c0.459-0.472,0.682-1.525,0.11-1.65c-2.026-0.44-3.571,0.999-5.387,1.377
		c6.162-9.492,17.956-17.211,30.895-7.732c-0.088-0.005-8.296,0.373-2.332,9.201c3.225,4.769,3.436,8.594,0.882,16.374
		c-0.918,3.838-1.197,4.998-2.021,8.948C247.74,22.378,244.528,14.368,241.993,4.126 M252.402,38.238
		c2.164-9.337,5.767-18.265,7.887-27.615c0.409-1.81,0.762-4.625,0.124-7.762C266.725,12.726,266,28.04,252.402,38.238"/>
	<path clip-path="url(#SVGID_2_)" fill="none" stroke="#000000" stroke-width="1.24" stroke-miterlimit="10" d="M265.541,15.013
		C264.938-0.041,252.483-9.57,241.218-9.024c-20.262,1.667-33.417,32.202-15.499,48.18
		C243.885,55.344,266.315,34.426,265.541,15.013z M222.333,8.758c0.173,11.209,3.311,19.944,11.582,32.246
		C220.256,34.797,217.751,20.085,222.333,8.758z M241.919,42.318c-1.743,0.112-3.162,0.013-4.899-0.347
		c-0.525-5.215-0.859-11.73,1.768-23.089c4.774,12.363,10.031,21.427,10.068,21.477C247.964,40.786,245.241,42.082,241.919,42.318z
		 M241.993,4.126c2.226-0.328,4.755-0.7,3.459-2.133c-0.167-0.18-11.916,0.986-12.027,1.005c-0.905,0.155-1.06,1.215-1.067,1.227
		c-0.093,0.837,0.062,0.825,2.604,0.676c0.676,3.615,0.979,5.264,2.641,10.546c-1.203,4.985-2.442,10.137-2.609,18.11
		c-5.357-10.658-7.502-18.061-7.905-27.317c0.757-0.459,1.772-0.279,2.443-0.967c0.459-0.472,0.682-1.525,0.11-1.65
		c-2.026-0.44-3.571,0.999-5.387,1.377c6.162-9.492,17.956-17.211,30.895-7.732c-0.088-0.005-8.296,0.373-2.332,9.201
		c3.225,4.769,3.436,8.594,0.882,16.374c-0.918,3.838-1.197,4.998-2.021,8.948C247.74,22.378,244.528,14.368,241.993,4.126z
		 M252.402,38.238c2.164-9.337,5.767-18.265,7.887-27.615c0.409-1.81,0.762-4.625,0.124-7.762
		C266.725,12.726,266,28.04,252.402,38.238z"/>
	<path clip-path="url(#SVGID_2_)" d="M77.886,143.072c-0.446,0-0.893,0.088-1.32,0.268c-1.203,0.496-2.021,1.624-2.126,2.921
		c-0.223,2.882-0.875,2.882-2.288,2.882c-2.4,0-4.111-0.985-5.388-3.1c-0.676-1.115-1.921-1.761-3.218-1.661
		c-0.694,0.05-1.413,0.073-2.145,0.073c-3.36,0-8.637-0.545-14.713-3.154c-1.692-0.727-3.658,0.006-4.47,1.661
		c-0.062,0.13-0.118,0.266-0.167,0.402c-0.558-1.389-1.029-2.784-1.395-4.191c-0.211-0.8-0.701-1.5-1.388-1.972
		c-16.394-11.29-15.606-48.775-9.716-65.422c1.246-3.522,2.808-6.802,4.65-9.747c0.812-1.301,0.669-2.982-0.354-4.129
		c-1.023-1.141-2.672-1.481-4.06-0.824c-2.754,1.302-5.314,1.965-7.614,1.965c-1.079,0-2.115-0.149-3.088-0.44
		c-4.346-1.302-6.938-3.646-8.271-5.45c0.688-0.006,1.519-0.012,2.511-0.012c1.68,0,3.597,0.012,5.63,0.018
		c2.319,0.012,4.792,0.025,7.267,0.025c4.407,0,10.75-0.037,14.929-0.335c0.676-0.049,1.321-0.298,1.86-0.706
		c5.332-4.105,11.551-6.287,18.482-6.498c0.515-0.019,1.024-0.025,1.531-0.025c14.453,0,27.106,6.399,33.865,17.112
		c0.136,0.217,0.297,0.422,0.482,0.602c0.869,0.874,1.984,1.804,3.206,2.709c-0.955,0.527-1.637,1.494-1.767,2.629
		c-0.187,1.643-1.24,2.275-1.358,2.343c-1.55,0.868-2.195,2.766-1.487,4.396c0.7,1.606,2.48,2.43,4.147,1.941
		c0,0,0.006,0,0.006,0.006c1.197,0.998,2.896,1.066,4.16,0.205c0.713,0.186,2.107,0.967,3.032,2.108
		c0.526,0.657,0.663,1.153,0.632,1.333c-0.036,0.21-0.1,0.334-0.136,0.378c-1.066,1.165-1.209,2.908-0.348,4.228
		c3.968,6.064,6.063,13.107,6.063,20.367c0,4.012-0.645,7.985-1.915,11.799c-0.534,1.58,0.142,3.316,1.604,4.123
		c1.458,0.806,3.286,0.452,4.348-0.838c0.582-0.712,0.904-0.985,1.016-1.072c1.116-0.861,2.276-1.313,3.342-1.313
		c0.949,0,1.773,0.371,2.325,1.047c0.719,0.881,0.937,2.208,0.62,3.745c-1.017,4.923-10.49,15.134-16.374,16.548
		c-0.285,0.068-0.502,0.105-0.663,0.118c-0.074-0.732,0.124-2.114,0.54-3.051c0.228-0.533,0.545-1.208,0.917-1.978
		c0.75-1.544-11.121,5.734-12.541,4.773c-1.413-0.969-8.484,2.673-18.044,3.293C78.438,143.11,78.159,143.072,77.886,143.072
		 M107.249,157.34c1.11,0,2.599,0.315,2.686,3.057c0.03,0.923-0.701,2.69-2.841,4.897c-4.277,4.421-13.088,9.183-22.319,9.183
		c-1.959,0-3.869-0.218-5.68-0.646c-14.496-3.435-28.11-13.899-34.899-26.021l0.317,0.167c7.811,13.535,23.969,23.628,38.005,23.628
		c7.489,0,13.417-3.025,16.684-8.525C101.564,159.112,104.943,157.34,107.249,157.34 M84.774,181.396
		c11.303,0,21.854-5.673,27.292-11.29c3.23-3.336,4.886-6.771,4.787-9.933c-0.192-5.828-4.049-9.752-9.604-9.752
		c-5.282,0-10.645,3.497-13.993,9.126c-2.529,4.253-7.235,5.146-10.738,5.146c-8.309,0-19.598-5.047-27.41-13.813
		c2.443,0.373,4.576,0.497,6.293,0.497c0.223,0,0.453-0.008,0.676-0.008c2.505,3.038,6.014,4.694,10.075,4.694
		c2.691,0,7.006-0.875,8.618-6.126c7.421-0.75,14.428-3.335,20.484-7.514c0.192,0.625,0.465,1.239,0.837,1.815
		c1.19,1.817,3.155,2.821,5.53,2.821c0.77,0,1.606-0.105,2.48-0.316c8.878-2.133,20.014-14.525,21.539-21.88
		c0.743-3.607,0.024-6.986-2.033-9.511c-1.86-2.287-4.663-3.595-7.689-3.595c-0.626,0-1.258,0.055-1.878,0.16
		c0.268-1.966,0.396-3.949,0.396-5.939c0-7.899-2.089-15.581-6.063-22.345c0.155-0.427,0.279-0.88,0.372-1.357
		c0.441-2.356-0.328-4.874-2.164-7.087c-0.279-0.335-0.577-0.657-0.893-0.961c2.71-0.893,3.925-2.815,4.118-4.526
		c0.26-2.368-1.304-4.483-3.715-5.016c-1.433-0.322-6.745-3.304-9.573-5.995c-8.363-12.959-23.802-20.491-41.236-19.958
		c-8.047,0.242-15.314,2.691-21.625,7.279c-3.944,0.229-9.48,0.254-13.435,0.254c-2.462,0-4.924-0.012-7.236-0.025
		c-2.046-0.006-3.968-0.019-5.661-0.019c-5.238,0-6.541,0.1-7.341,0.298c-1.902,0.477-3.167,2.164-3.217,4.303
		c-0.093,4.042,4.395,11.42,14.335,14.403c1.611,0.483,3.316,0.731,5.071,0.731c0.75,0,1.512-0.043,2.281-0.136
		c-0.508,1.19-0.986,2.405-1.426,3.651c-6.33,17.906-7.849,58.057,11.272,72.665c5.22,17.645,23.169,33.678,43.201,38.42
		C79.826,181.11,82.276,181.396,84.774,181.396"/>
	<path clip-path="url(#SVGID_2_)" d="M78.054,147.822h0.05c22.444-0.979,40.033-19.356,40.033-41.844
		c0-13.299-6.107-25.513-16.752-33.511c-0.508-0.378-1.234-0.279-1.619,0.23c-0.378,0.508-1.766,4.083-1.257,4.461
		c10.062,7.558,17.322,16.253,17.322,28.82c0,21.248-16.616,38.614-37.833,39.538c-0.633,0.03-1.128,0.563-1.098,1.202
		C76.926,147.338,77.434,147.822,78.054,147.822"/>
	<path clip-path="url(#SVGID_2_)" fill="#FFD300" d="M102.597,114.126c6.256-4.812,13.316-0.516,11.786,6.919
		c-1.266,6.101-11.582,17.44-18.96,19.208c-6.403,1.536-5.108-5.37-4.099-7.683c0.562-1.284,1.551-3.324,2.748-5.597
		c0.687-1.305,1.442-2.688,2.223-4.048c1.033-1.8,2.112-3.562,3.142-5.061C100.601,116.171,101.7,114.814,102.597,114.126"/>
	<path clip-path="url(#SVGID_2_)" fill="#FFFFFF" d="M96.34,76.294c0,12.869-16.136,23.301-36.041,23.301
		c-19.905,0-36.041-10.433-36.041-23.301c0-12.869,16.136-23.301,36.041-23.301C80.204,52.993,96.34,63.425,96.34,76.294"/>
	<path clip-path="url(#SVGID_2_)" fill="#AA662B" d="M69.258,87.548c0.745-3.437,2.316-6.556,4.757-9.059
		c8.461-8.674,24.124-6.682,34.98,4.446c10.858,11.129,12.801,27.182,4.339,35.854c-2.442,2.505-5.485,4.113-8.839,4.878
		c-0.057,5.897-1.99,11.355-5.931,15.396c-9.54,9.776-27.195,7.533-39.437-5.013c-12.24-12.547-14.429-30.646-4.89-40.423
		C58.179,89.588,63.502,87.606,69.258,87.548"/>
	<path clip-path="url(#SVGID_2_)" fill="none" stroke="#000000" stroke-width="2.48" stroke-miterlimit="10" d="M69.258,87.548
		c0.745-3.437,2.316-6.556,4.757-9.059c8.461-8.674,24.124-6.682,34.98,4.446c10.858,11.129,12.801,27.182,4.339,35.854
		c-2.442,2.505-5.485,4.113-8.839,4.878c-0.057,5.897-1.99,11.355-5.931,15.396c-9.54,9.776-27.195,7.533-39.437-5.013
		c-12.24-12.547-14.429-30.646-4.89-40.423C58.179,89.588,63.502,87.606,69.258,87.548z"/>
	<path clip-path="url(#SVGID_2_)" fill="#00709F" d="M102.681,103.197c0,8.333-6.755,15.087-15.087,15.087
		c-8.333,0-15.087-6.754-15.087-15.087c0-8.332,6.754-15.087,15.087-15.087C95.926,88.11,102.681,94.865,102.681,103.197"/>
	
		<circle clip-path="url(#SVGID_2_)" fill="none" stroke="#000000" stroke-width="1.24" stroke-miterlimit="10" cx="87.594" cy="103.197" r="15.087"/>
	<path clip-path="url(#SVGID_2_)" d="M108.198,72.43c2.609,0,3.912-0.787,4.538-1.42c0.682-0.694,0.942-1.606,0.7-2.436
		c-0.241-0.825-0.93-1.433-1.842-1.637c-1.988-0.44-7.935-3.832-10.961-6.864c-0.453-0.446-1.184-0.446-1.631,0
		c-0.452,0.453-0.452,1.185,0,1.631c3.175,3.174,9.505,6.907,12.09,7.483c0.106,0.025,0.143,0.062,0.143,0.062
		c-0.012-0.006-0.079,0.124-0.334,0.298c-0.478,0.322-2.468,1.259-7.954-0.285c-0.614-0.174-1.253,0.18-1.428,0.793
		c-0.173,0.614,0.188,1.253,0.802,1.426C104.788,72.17,106.704,72.43,108.198,72.43"/>
	<path clip-path="url(#SVGID_2_)" fill="#FFFFFF" d="M95.66,93.104c-8.421-6.51-22.836,1.456-20.49,13.745
		c2.225,11.651,16.958,10.46,22.529,2.801C102.02,103.71,100.136,96.3,95.66,93.104 M84.305,92.846
		c5.227-1.769,12.069-1.157,14.154,6.379c-0.031-0.028-3.285-2.364-3.673,2.815c-0.208,2.798-1.283,4.325-4.611,6.53
		c-1.512,1.189-1.969,1.55-3.478,2.811c1.339-4.79,2.531-8.824,4.657-13.509c0.951,0.547,2.031,1.169,1.967,0.229
		c-0.009-0.119-4.855-3.224-4.903-3.25c-0.394-0.214-0.772,0.144-0.779,0.147c-0.288,0.292-0.226,0.334,0.792,1.045
		c-0.834,1.587-1.216,2.31-2.178,4.833c-1.967,1.542-3.999,3.139-6.472,6.138c1.172-5.695,2.589-9.176,5.232-12.838
		c0.429,0.053,0.764,0.429,1.227,0.368c0.318-0.041,0.722-0.377,0.542-0.597C86.14,93.166,85.114,93.249,84.305,92.846
		 M85.026,114.066c3.65-2.917,7.726-5.244,11.362-8.18c0.704-0.568,1.689-1.539,2.394-2.932
		C98.215,108.636,93.31,114.275,85.026,114.066 M77.118,109.537c-3.348-6.503,0.141-12.887,5.315-15.835
		C79.112,98.042,77.674,102.331,77.118,109.537 M79.783,112.458c-0.701-0.484-1.214-0.951-1.769-1.613
		c1.375-2.153,3.215-4.748,7.653-8.298c-1.909,6.172-2.639,11.229-2.639,11.258C82.559,113.7,81.125,113.372,79.783,112.458"/>
	<path clip-path="url(#SVGID_2_)" fill="#FF8900" d="M102.637,70.366c9.988,2.821,11.011-1.792,8.704-2.3
		c-2.299-0.515-8.45-4.105-11.526-7.174L102.637,70.366z"/>
	<path clip-path="url(#SVGID_2_)" fill="#FF8900" d="M37.307,140.048c4.358,16.652,21.52,32.537,40.988,37.149
		c16.753,3.963,35.354-8.965,35.099-16.907c-0.291-8.946-11.525-8.457-17.161,1.023c-8.637,14.52-38.174,4.352-49.191-15.884
		L37.307,140.048z"/>
	<path clip-path="url(#SVGID_2_)" fill="#00A2C1" d="M100.689,73.392c0.112,0.081,0.223,0.174,0.335,0.26
		c-0.167-0.062-0.335-0.117-0.502-0.179C100.577,73.441,100.634,73.422,100.689,73.392"/>
	<path clip-path="url(#SVGID_2_)" fill="#00A2C1" d="M89.437,71.662c0.174,0,0.342-0.012,0.515-0.012
		c3.708,0,7.268,0.644,10.571,1.822C96.307,75.567,92.636,73.961,89.437,71.662"/>
	<path clip-path="url(#SVGID_2_)" fill="#FFD300" d="M64.209,147.798c-6.25,0.558-16.517-0.602-26.902-7.75
		C18.571,127.146,20.4,87.279,26.29,70.626c5.897-16.654,18.191-27.925,35.098-28.44c16.908-0.508,31,6.919,38.428,18.706
		c5.01,7.948,1.283,12.294-1.022,13.317c-2.306,1.029-12.041-2.815-14.861-7.942c-6.66,4.098-14.087,2.306-20.492,0.26
		l-12.301,3.584c9.741-3.844,22.035-1.538,28.44,4.098c6.403,5.636,2.046,9.74-2.821,10.249c-4.867,0.514-14.341-3.844-21.775-2.307
		c-7.427,1.538-9.709,4.26-17.651,11.433c0,0-4.352,17.422,0,24.106c7.552-4.359,21.205,0.576,25.265,9.87l0.705,8.85l0.409,5.135
		L64.209,147.798z"/>
	<path clip-path="url(#SVGID_2_)" d="M37.202,118.769c0.112,0,0.217-0.018,0.328-0.049c0.608-0.18,0.955-0.825,0.775-1.433
		c-1.085-3.651-1.636-7.458-1.636-11.309c0-4.285,0.681-8.495,2.02-12.518c0.199-0.607-0.124-1.259-0.731-1.457
		c-0.601-0.205-1.259,0.124-1.457,0.725c-1.419,4.26-2.139,8.718-2.139,13.25c0,4.073,0.583,8.104,1.736,11.966
		C36.247,118.447,36.705,118.769,37.202,118.769"/>
	<path clip-path="url(#SVGID_2_)" d="M62.157,128.138c0.173,0,0.347-0.037,0.508-0.117c0.57-0.28,0.806-0.975,0.527-1.545
		c-3.093-6.312-8.928-10.341-15.996-11.061c-5.834-0.589-11.643,1.246-14.129,4.457c-0.392,0.509-0.298,1.234,0.204,1.619
		c0.508,0.39,1.233,0.297,1.618-0.205c1.996-2.579,7.062-4.08,12.078-3.577c3.677,0.378,10.41,2.14,14.155,9.783
		C61.326,127.901,61.735,128.138,62.157,128.138"/>
	<path clip-path="url(#SVGID_2_)" d="M61.438,149.068c1.153,0,2.12-0.056,2.871-0.123c0.631-0.057,1.103-0.614,1.047-1.247
		c-0.056-0.638-0.632-1.103-1.252-1.047c-4.042,0.352-14.682,0.34-26.145-7.553c-18.042-12.418-16.455-51.498-10.584-68.087
		c6.058-17.113,18.47-27.2,34.05-27.672c15.953-0.483,29.94,6.312,37.418,18.167c2.039,3.242,2.746,6.187,2.039,8.525
		c-0.514,1.698-1.705,2.746-2.562,3.125c-1.45,0.65-10.694-2.561-13.379-7.44c-0.154-0.28-0.409-0.478-0.713-0.559
		c-0.31-0.08-0.633-0.036-0.898,0.13c-6.306,3.882-13.398,2.109-19.542,0.144c-0.608-0.193-1.253,0.135-1.451,0.743
		c-0.192,0.608,0.143,1.259,0.75,1.451c6.777,2.17,13.925,3.664,20.466,0.192c3.634,5.054,12.865,8.711,15.705,7.446
		c1.364-0.607,3.087-2.12,3.832-4.562c0.632-2.09,0.75-5.593-2.301-10.423c-7.917-12.555-22.654-19.753-39.438-19.239
		c-16.579,0.502-29.76,11.142-36.146,29.202c-2.765,7.806-5.003,22.147-3.795,36.599c0.968,11.457,4.39,26.691,15.24,34.162
		C46.614,147.86,56.032,149.068,61.438,149.068"/>
	<path clip-path="url(#SVGID_2_)" fill="#FF8900" d="M41.405,49.36c4.607-0.372,1.029,3.075-0.508,4.359
		c-1.538,1.277-12.555,11.271-22.804,8.196S4.769,50.389,6.822,49.875C8.874,49.36,31.925,50.129,41.405,49.36"/>
	<path clip-path="url(#SVGID_2_)" d="M42.373,50.501c-0.304,0.49-1.036,1.351-2.214,2.331l-0.297,0.248
		c-8.011,6.832-14.037,8.265-17.689,8.265c-1.302,0-2.561-0.18-3.751-0.534c-5.623-1.686-9.077-5.177-10.435-7.874
		c-0.508-1.01-0.613-1.674-0.613-1.984c0.768-0.08,2.759-0.117,5.933-0.117c1.693,0,3.615,0.012,5.661,0.018
		c2.325,0.013,4.811,0.025,7.291,0.025c4.588,0,11.166-0.037,15.239-0.366C41.858,50.482,42.168,50.482,42.373,50.501
		 M22.173,63.651L22.173,63.651c4.036,0,10.639-1.531,19.182-8.816l0.28-0.23c3.775-3.149,3.255-4.588,3.081-5.059
		c-0.322-0.905-1.227-1.364-2.666-1.364c-0.223,0-0.465,0.012-0.738,0.031c-3.992,0.322-10.502,0.36-15.053,0.36
		c-2.474,0-4.954-0.013-7.279-0.019c-2.052-0.012-3.98-0.025-5.673-0.025c-4.879,0-6.207,0.087-6.764,0.23
		c-0.893,0.223-1.445,1.016-1.47,2.114c-0.068,2.796,3.696,9.449,12.692,12.146C19.166,63.44,20.648,63.651,22.173,63.651"/>
	<path clip-path="url(#SVGID_2_)" d="M85.983,59.609c1.835,1.376,1.277,3.075-0.769,3.329c-2.053,0.261-2.207,0.391-4.1-1.023
		c-2.051-1.537-2.305-4.098,0-3.844C83.423,58.332,84.961,58.84,85.983,59.609"/>
	<path clip-path="url(#SVGID_2_)" d="M91.365,60.632c0,1.277,1.029,2.306,2.3,2.306c1.277,0,2.308-1.029,2.308-2.306
		c0-1.271-1.03-2.3-2.308-2.3C92.395,58.332,91.365,59.361,91.365,60.632"/>
	<path clip-path="url(#SVGID_2_)" d="M64.717,54.227c0,1.277,1.035,2.306,2.306,2.306c1.277,0,2.306-1.029,2.306-2.306
		c0-1.271-1.029-2.3-2.306-2.3C65.752,51.927,64.717,52.956,64.717,54.227"/>
	<path clip-path="url(#SVGID_2_)" d="M84.693,179.076c8.966,0,17.763-3.838,23.337-8.4c4.24-3.466,6.615-7.268,6.516-10.429
		c-0.123-3.788-2.033-6.441-5.244-7.267c-4.074-1.054-10.218,1.271-14.062,7.744c-3.17,5.326-8.929,6.361-13.175,6.268
		c-12.661-0.241-27.281-9.746-34.008-22.114c-0.31-0.559-1.01-0.764-1.568-0.459c-0.558,0.304-0.763,1.004-0.459,1.562
		c7.093,13.039,22.568,23.064,35.991,23.318c6.92,0.111,12.282-2.498,15.196-7.396c3.267-5.499,8.265-7.526,11.514-6.689
		c2.176,0.558,3.422,2.375,3.509,5.108c0.08,2.406-2.039,5.605-5.667,8.575c-6.521,5.332-17.714,9.616-28.012,7.179
		c-18.928-4.481-35.811-19.759-40.139-36.318c-0.161-0.614-0.787-0.986-1.407-0.825c-0.614,0.161-0.986,0.794-0.824,1.407
		c4.532,17.342,22.127,33.312,41.836,37.981C80.229,178.841,82.468,179.076,84.693,179.076"/>
	<path clip-path="url(#SVGID_2_)" d="M34.747,96.629c0.272,0,0.552-0.099,0.775-0.298l0.911-0.824
		c7.452-6.74,11.954-10.813,18.786-12.227c4.11-0.849,9.015,0.242,13.342,1.197c3.287,0.732,6.113,1.364,8.321,1.128
		c3.385-0.353,6.07-2.139,6.832-4.538c0.54-1.693,0.391-4.408-3.373-7.719c-7.037-6.194-20.051-8.085-29.623-4.309
		c-0.595,0.236-0.88,0.905-0.651,1.494c0.236,0.595,0.905,0.887,1.501,0.651c8.835-3.49,20.806-1.779,27.249,3.894
		c2.207,1.94,3.167,3.819,2.702,5.288c-0.482,1.507-2.441,2.691-4.879,2.945c-1.835,0.193-4.625-0.427-7.576-1.085
		c-4.557-1.01-9.722-2.157-14.316-1.202c-7.446,1.543-12.388,6.007-19.865,12.772l-0.911,0.824
		c-0.472,0.422-0.508,1.153-0.081,1.625C34.12,96.499,34.43,96.629,34.747,96.629"/>
	<path clip-path="url(#SVGID_2_)" fill="#FFD300" d="M116.469,117.25c6.256-4.812,13.317-0.515,11.787,6.919
		c-1.267,6.102-11.582,17.441-18.96,19.208c-6.404,1.537-5.109-5.37-4.1-7.682c0.562-1.284,1.552-3.324,2.748-5.597
		c0.688-1.306,1.442-2.688,2.224-4.048c1.033-1.801,2.111-3.562,3.141-5.061C114.473,119.295,115.572,117.939,116.469,117.25"/>
	<path clip-path="url(#SVGID_2_)" d="M121.919,116.37c1.655,0,3.118,0.676,4.117,1.897c1.158,1.426,1.55,3.44,1.091,5.665
		c-1.178,5.681-11.266,16.686-18.098,18.328c-0.528,0.124-0.999,0.187-1.408,0.187c-1.066,0-1.463-0.416-1.667-0.731
		c-0.837-1.271-0.36-4.05,0.297-5.556c1.891-4.328,7.893-15.661,10.918-17.999C118.694,116.99,120.338,116.37,121.919,116.37
		 M107.621,144.753L107.621,144.753c0.59,0,1.247-0.087,1.94-0.254c7.801-1.873,18.47-13.578,19.822-20.101
		c0.601-2.913,0.042-5.611-1.562-7.588c-1.427-1.743-3.572-2.747-5.902-2.747c-2.096,0-4.223,0.788-6.157,2.274
		c-3.794,2.921-10.229,15.718-11.625,18.893c-0.576,1.32-1.723,5.288-0.118,7.75C104.553,143.786,105.606,144.753,107.621,144.753"
		/>
	<path clip-path="url(#SVGID_2_)" fill="#FFD300" d="M62.157,143.638c0,0,1.537,8.965,9.994,8.965c8.45,0,4.867-10.248,5.89-16.907
		s5.122-15.37-1.023-19.468c-6.149-4.099-13.578,7.942-14.86,12.549C60.365,134.927,60.619,138.771,62.157,143.638"/>
	
		<rect x="114.284" y="40.988" transform="matrix(0.7071 0.7071 -0.7071 0.7071 85.2346 -63.533)" clip-path="url(#SVGID_2_)" width="10.042" height="60.255"/>
	
		<rect x="114.284" y="40.988" transform="matrix(0.7071 0.7071 -0.7071 0.7071 85.2346 -63.533)" clip-path="url(#SVGID_2_)" fill="none" stroke="#000000" stroke-width="1.614" stroke-miterlimit="10" width="10.042" height="60.255"/>
	
		<line clip-path="url(#SVGID_2_)" fill="none" stroke="#FFFFFF" stroke-width="0.62" stroke-miterlimit="10" x1="138.072" y1="47.276" x2="95.465" y2="89.882"/>
	
		<line clip-path="url(#SVGID_2_)" fill="none" stroke="#FFFFFF" stroke-width="0.62" stroke-miterlimit="10" x1="139.087" y1="48.291" x2="96.479" y2="90.898"/>
	
		<line clip-path="url(#SVGID_2_)" fill="none" stroke="#FFFFFF" stroke-width="0.62" stroke-miterlimit="10" x1="140.101" y1="49.305" x2="97.494" y2="91.911"/>
	
		<line clip-path="url(#SVGID_2_)" fill="none" stroke="#FFFFFF" stroke-width="0.62" stroke-miterlimit="10" x1="141.115" y1="50.32" x2="98.508" y2="92.926"/>
	
		<line clip-path="url(#SVGID_2_)" fill="none" stroke="#FFFFFF" stroke-width="0.62" stroke-miterlimit="10" x1="143.145" y1="52.349" x2="100.537" y2="94.955"/>
	
		<line clip-path="url(#SVGID_2_)" fill="none" stroke="#FFFFFF" stroke-width="0.62" stroke-miterlimit="10" x1="142.13" y1="51.334" x2="99.522" y2="93.94"/>
	<path clip-path="url(#SVGID_2_)" d="M74.346,116.921c0.639,0,1.234,0.192,1.817,0.583c3.634,2.418,2.901,6.803,1.364,13.206
		c-0.378,1.581-0.768,3.218-1.004,4.749c-0.31,1.991-0.236,4.217-0.162,6.362c0.112,3.341,0.223,6.789-1.214,8.276
		c-0.627,0.65-1.613,0.968-2.995,0.968c-7.031,0-8.426-7.378-8.482-7.694c-0.012-0.062-0.025-0.131-0.043-0.199
		c-1.37-4.34-1.779-7.85,0.006-13.962C64.773,125.1,70.205,116.921,74.346,116.921 M72.151,154.141c2.232,0,3.987-0.64,5.207-1.903
		c2.345-2.425,2.208-6.541,2.078-10.516c-0.068-2.01-0.137-4.085,0.123-5.798c0.218-1.4,0.577-2.906,0.956-4.501
		c1.425-5.945,3.038-12.686-2.648-16.479c-1.091-0.725-2.275-1.091-3.521-1.091c-6.677,0-12.561,10.515-13.671,14.515
		c-1.971,6.771-1.506,10.874-0.012,15.635C61.313,147.574,64.514,154.141,72.151,154.141"/>
	<path clip-path="url(#SVGID_2_)" fill="#FFD300" d="M109.358,72.044c2.56-1.023,8.965,3.329,8.196,7.434
		c-0.764,4.098-5.376,4.098-8.45,1.023C106.028,77.426,106.878,73.036,109.358,72.044"/>
	<path clip-path="url(#SVGID_2_)" d="M110.238,73.669c1.24,0,3.51,1.116,5.011,2.92c0.544,0.663,1.425,1.965,1.177,3.292
		c-0.354,1.885-1.599,2.276-2.585,2.276c-1.296,0-2.759-0.689-3.925-1.854c-1.289-1.296-1.873-3.001-1.551-4.57
		c0.198-0.973,0.732-1.723,1.421-1.996C109.902,73.694,110.058,73.669,110.238,73.669 M113.841,84.463L113.841,84.463
		c2.511,0,4.371-1.593,4.848-4.154c0.317-1.674-0.278-3.515-1.674-5.189c-1.804-2.177-4.656-3.758-6.776-3.758
		c-0.478,0-0.918,0.081-1.308,0.236c-1.414,0.564-2.468,1.934-2.821,3.67c-0.483,2.332,0.334,4.824,2.177,6.665
		C109.897,83.539,111.918,84.463,113.841,84.463"/>
	<polygon clip-path="url(#SVGID_2_)" points="41.708,39.25 72.117,30.53 67.114,16.607 38.732,24.745 	"/>
	<polygon clip-path="url(#SVGID_2_)" fill="none" stroke="#000000" stroke-width="1.116" stroke-miterlimit="10" points="
		41.708,39.25 72.117,30.53 67.114,16.607 38.732,24.745 	"/>
	<path clip-path="url(#SVGID_2_)" d="M18.195,52.896c1.125,3.919,20.187,1.89,42.582-4.531c22.393-6.419,39.632-14.802,38.51-18.721
		c-1.126-3.92-20.188-1.888-42.58,4.53C34.313,40.596,17.072,48.977,18.195,52.896"/>
	
		<ellipse transform="matrix(-0.9613 0.2756 -0.2756 -0.9613 126.5822 64.7506)" clip-path="url(#SVGID_2_)" fill="none" stroke="#000000" stroke-width="1.116" stroke-miterlimit="10" cx="58.741" cy="41.27" rx="42.18" ry="7.382"/>
	<polygon clip-path="url(#SVGID_2_)" fill="#FF0000" points="41.708,39.25 72.117,30.53 70.742,26.703 40.933,35.471 	"/>
	<polygon clip-path="url(#SVGID_2_)" fill="none" stroke="#000000" stroke-width="1.116" stroke-miterlimit="10" points="
		41.708,39.25 72.117,30.53 70.742,26.703 40.933,35.471 	"/>
	<path clip-path="url(#SVGID_2_)" d="M26.144,127.437c0,0,11.398,17.532,21.915,17.441c3.851-0.034,9.596-20.594,10.71-21.937
		c0.632-0.761-11.577-7.228-11.399-8.133c0.173-0.875,3.133-17.038,3.34-17.846c0.214-0.837-12.955,1.416-12.702,0.65
		c3.951-11.944,12.78-15.324,30.553-13.136c1.632,0.201,3.765-14.057,2.708-14.44c-6.221-2.252-12.77-2.818-20.551-0.998
		c-0.623,0.146-24.979,1.785-25.282,2.339c-4.289,7.854-4.908,43.193-0.827,49.549C24.793,121.215,26.144,127.437,26.144,127.437"/>
	<path clip-path="url(#SVGID_2_)" fill="none" stroke="#000000" stroke-width="1.24" stroke-miterlimit="10" d="M26.144,127.437
		c0,0,11.398,17.532,21.915,17.441c3.851-0.034,9.596-20.594,10.71-21.937c0.632-0.761-11.577-7.228-11.399-8.133
		c0.173-0.875,3.133-17.038,3.34-17.846c0.214-0.837-12.955,1.416-12.702,0.65c3.951-11.944,12.78-15.324,30.553-13.136
		c1.632,0.201,3.765-14.057,2.708-14.44c-6.221-2.252-12.77-2.818-20.551-0.998c-0.623,0.146-24.979,1.785-25.282,2.339
		c-4.289,7.854-4.908,43.193-0.827,49.549C24.793,121.215,26.144,127.437,26.144,127.437z"/>
	<path clip-path="url(#SVGID_2_)" d="M231.067,143.072c0.447,0,0.894,0.088,1.321,0.268c1.203,0.496,2.021,1.624,2.126,2.921
		c0.223,2.882,0.875,2.882,2.288,2.882c2.399,0,4.11-0.985,5.388-3.1c0.676-1.115,1.921-1.761,3.218-1.661
		c0.694,0.05,1.413,0.073,2.146,0.073c3.359,0,8.637-0.545,14.713-3.154c1.692-0.727,3.658,0.006,4.47,1.661
		c0.062,0.13,0.118,0.266,0.167,0.402c0.559-1.389,1.029-2.784,1.396-4.191c0.211-0.8,0.7-1.5,1.388-1.972
		c16.394-11.29,15.606-48.775,9.716-65.422c-1.246-3.522-2.808-6.802-4.649-9.747c-0.812-1.301-0.669-2.982,0.354-4.129
		c1.023-1.141,2.672-1.481,4.06-0.824c2.755,1.302,5.314,1.965,7.614,1.965c1.079,0,2.115-0.149,3.088-0.44
		c4.347-1.302,6.938-3.646,8.271-5.45c-0.688-0.006-1.52-0.012-2.511-0.012c-1.681,0-3.598,0.012-5.631,0.018
		c-2.318,0.012-4.792,0.025-7.267,0.025c-4.407,0-10.75-0.037-14.929-0.335c-0.676-0.049-1.321-0.298-1.86-0.706
		c-5.332-4.105-11.551-6.287-18.481-6.498c-0.516-0.019-1.024-0.025-1.531-0.025c-14.453,0-27.107,6.399-33.865,17.112
		c-0.136,0.217-0.297,0.422-0.483,0.602c-0.868,0.874-1.983,1.804-3.205,2.709c0.954,0.527,1.637,1.494,1.767,2.629
		c0.186,1.643,1.24,2.275,1.358,2.343c1.55,0.868,2.194,2.766,1.486,4.396c-0.7,1.606-2.479,2.43-4.146,1.941
		c0,0-0.006,0-0.006,0.006c-1.197,0.998-2.896,1.066-4.16,0.205c-0.713,0.186-2.108,0.967-3.032,2.108
		c-0.527,0.657-0.663,1.153-0.632,1.333c0.036,0.21,0.099,0.334,0.136,0.378c1.066,1.165,1.209,2.908,0.347,4.228
		c-3.968,6.064-6.062,13.107-6.062,20.367c0,20.771,8.188,30.62,1.915,11.799c-0.533-1.581-0.143,3.316-1.605,4.123
		c-1.458,0.806-3.286,0.452-4.347-0.838c-0.582-0.712-0.905-0.985-1.016-1.072c-1.116-0.861-2.276-1.313-3.343-1.313
		c-0.948,0-1.772,0.371-2.324,1.047c-0.72,0.881-0.937,2.208-0.62,3.745c1.017,4.923,10.489,15.134,16.374,16.548
		c0.284,0.068,0.502,0.105,0.663,0.118c0.073-0.732-0.124-2.114-0.54-3.051c-0.229-0.533-0.545-1.208-0.917-1.978
		c-0.75-1.544-0.255-3.404,1.166-4.365c1.414-0.968,3.322-0.75,4.488,0.508c6.547,7.088,15.37,11.304,24.931,11.924
		C230.516,143.11,230.795,143.072,231.067,143.072 M201.704,157.34c-1.109,0-2.598,0.315-2.685,3.057
		c-0.031,0.923,0.701,2.69,2.84,4.897c4.278,4.421,13.088,9.183,22.32,9.183c1.959,0,3.869-0.218,5.679-0.646
		c14.496-3.435,28.111-13.899,34.9-26.021l-0.317,0.167c-7.811,13.535-23.969,23.628-38.005,23.628
		c-7.49,0-13.417-3.025-16.684-8.525C207.39,159.112,204.011,157.34,201.704,157.34 M224.18,181.396
		c-11.303,0-21.855-5.673-27.292-11.29c-3.231-3.336-4.886-6.771-4.787-9.933c0.192-5.828,4.049-9.752,9.604-9.752
		c5.282,0,10.646,3.497,13.993,9.126c2.53,4.253,7.236,5.146,10.739,5.146c8.308,0,19.598-5.047,27.41-13.813
		c-2.443,0.373-4.576,0.497-6.293,0.497c-0.224,0-0.453-0.008-0.676-0.008c-2.506,3.038-6.015,4.694-10.075,4.694
		c-2.691,0-7.006-0.875-8.618-6.126c-7.421-0.75-14.428-3.335-20.485-7.514c-0.191,0.625-0.465,1.239-0.837,1.815
		c-1.189,1.817-3.155,2.821-5.53,2.821c-0.769,0-1.605-0.105-2.479-0.316c-8.878-2.133-20.014-14.525-21.539-21.88
		c-0.744-3.607-0.025-6.986,2.033-9.511c1.859-2.287,4.663-3.595,7.688-3.595c0.626,0,1.259,0.055,1.878,0.16
		c-0.267-1.966-0.396-3.949-0.396-5.939c0-7.899,2.089-15.581,6.062-22.345c-0.154-0.427-0.278-0.88-0.371-1.357
		c-0.441-2.356,0.327-4.874,2.163-7.087c0.279-0.335,0.577-0.657,0.894-0.961c-2.71-0.893-3.925-2.815-4.118-4.526
		c-0.26-2.368,1.303-4.483,3.714-5.016c1.434-0.322,6.746-3.304,9.574-5.995c8.363-12.959,23.801-20.491,41.236-19.958
		c8.047,0.242,15.313,2.691,21.625,7.279c3.943,0.229,9.479,0.254,13.435,0.254c2.462,0,4.924-0.012,7.236-0.025
		c2.046-0.006,3.968-0.019,5.661-0.019c5.237,0,6.541,0.1,7.341,0.298c1.901,0.477,3.167,2.164,3.217,4.303
		c0.093,4.042-4.396,11.42-14.335,14.403c-1.611,0.483-3.316,0.731-5.071,0.731c-0.75,0-1.512-0.043-2.281-0.136
		c0.509,1.19,0.986,2.405,1.427,3.651c6.33,17.906,7.849,58.057-11.272,72.665c-5.22,17.645-23.169,33.678-43.201,38.42
		C229.128,181.11,226.678,181.396,224.18,181.396"/>
	<path clip-path="url(#SVGID_2_)" fill="#FFD300" d="M230.9,146.669c-21.657-0.942-38.931-18.798-38.931-40.69
		c0-13.324,6.398-25.154,16.295-32.587c7.019,3.639,12.535-3.038,16.895-6.232c12.48,3.194,32.581,1.339,46.202,25.935
		c2.064,3.732,2.077,8.382,2.077,12.884c0,4.042-0.589,7.948-1.687,11.638c-10.007-3.701-21.911,0.941-25.395,9.944
		C239.673,139.465,230.9,146.669,230.9,146.669"/>
	<path clip-path="url(#SVGID_2_)" fill="#FF8900" d="M206.316,70.366c-9.987,2.821-11.011-1.792-8.703-2.3
		c2.299-0.515,8.449-4.105,11.525-7.174L206.316,70.366z"/>
	<path clip-path="url(#SVGID_2_)" fill="#FF8900" d="M271.646,140.048c-4.358,16.652-21.52,32.537-40.988,37.149
		c-16.753,3.963-35.353-8.965-35.098-16.907c0.291-8.946,11.525-8.457,17.161,1.023c8.637,14.52,38.174,4.352,49.19-15.884
		L271.646,140.048z"/>
	<path clip-path="url(#SVGID_2_)" fill="#00A2C1" d="M208.265,73.392c-0.112,0.081-0.224,0.174-0.335,0.26
		c0.166-0.062,0.335-0.117,0.502-0.179C208.376,73.441,208.32,73.422,208.265,73.392"/>
	<path clip-path="url(#SVGID_2_)" fill="#00A2C1" d="M219.518,71.662c-0.174,0-0.342-0.012-0.516-0.012
		c-3.708,0-7.267,0.644-10.57,1.822C212.647,75.567,216.318,73.961,219.518,71.662"/>
	<path clip-path="url(#SVGID_2_)" fill="#FFD300" d="M210.161,74.209c-2.306-1.023-6.032-5.369-1.022-13.318
		c7.428-11.786,21.52-19.213,38.428-18.705c16.907,0.515,29.202,11.786,35.098,28.439c5.89,16.654,7.719,56.52-11.018,69.422
		c-10.386,7.147-20.652,8.308-26.901,7.75l1.612-20.237c4.061-9.294,17.713-14.229,25.265-9.87c4.352-6.684,0-24.106,0-24.106
		c-7.943-7.173-10.224-9.895-17.652-11.433c-7.434-1.537-18.269,9.37-31.44,6.782c-13.171-2.588-14.131-9.443-14.131-9.443
		l-2.81-6.407L210.161,74.209z"/>
	<path clip-path="url(#SVGID_2_)" fill="none" stroke="#000000" stroke-width="1.86" stroke-miterlimit="10" d="M210.161,74.209
		c-2.306-1.023-6.032-5.369-1.022-13.318c7.428-11.786,21.52-19.213,38.428-18.705c16.907,0.515,29.202,11.786,35.098,28.439
		c5.89,16.654,7.719,56.52-11.018,69.422c-10.386,7.147-20.652,8.308-26.901,7.75l1.612-20.237
		c4.061-9.294,17.713-14.229,25.265-9.87c4.352-6.684,0-24.106,0-24.106c-7.943-7.173-10.224-9.895-17.652-11.433
		c-7.434-1.537-18.269,9.37-31.44,6.782c-13.171-2.588-14.131-9.443-14.131-9.443l-2.81-6.407L210.161,74.209z"/>
	<path clip-path="url(#SVGID_2_)" d="M247.516,149.068c-1.152,0-2.119-0.056-2.87-0.123c-0.632-0.057-1.104-0.614-1.048-1.247
		c0.057-0.638,0.633-1.103,1.252-1.047c4.043,0.352,14.683,0.34,26.146-7.553c18.042-12.418,16.455-51.498,10.584-68.087
		c-6.058-17.113-18.47-27.2-34.05-27.672c-15.953-0.483-29.941,6.312-37.418,18.167c-2.039,3.242-2.746,6.187-2.039,8.525
		c0.514,1.698,1.705,2.746,2.561,3.125c1.451,0.65,10.695-2.561,13.379-7.44c0.155-0.28,0.409-0.478,0.713-0.559
		c0.311-0.08,0.634-0.036,0.899,0.13c6.305,3.882,13.398,2.109,19.542,0.144c0.608-0.193,1.253,0.135,1.451,0.743
		c0.192,0.608-0.144,1.259-0.75,1.451c-6.777,2.17-13.925,3.664-20.466,0.192c-3.634,5.054-12.865,8.711-15.705,7.446
		c-1.364-0.607-3.087-2.12-3.832-4.562c-0.632-2.09-0.75-5.593,2.301-10.423c7.917-12.555,22.654-19.753,39.438-19.239
		c16.578,0.502,29.76,11.142,36.146,29.202c2.765,7.806,5.003,22.147,3.795,36.599c-0.968,11.457-4.39,26.691-15.24,34.162
		C262.34,147.86,252.922,149.068,247.516,149.068"/>
	<path clip-path="url(#SVGID_2_)" fill="#FF8900" d="M267.549,49.36c-4.607-0.372-1.029,3.075,0.508,4.359
		c1.538,1.277,12.555,11.271,22.804,8.196s13.324-11.526,11.271-12.04C300.08,49.36,277.028,50.129,267.549,49.36"/>
	<path clip-path="url(#SVGID_2_)" d="M266.581,50.501c0.304,0.49,1.036,1.351,2.214,2.331l0.297,0.248
		c8.011,6.832,14.037,8.265,17.688,8.265c1.303,0,2.562-0.18,3.751-0.534c5.623-1.686,9.077-5.177,10.436-7.874
		c0.508-1.01,0.613-1.674,0.613-1.984c-0.769-0.08-2.76-0.117-5.934-0.117c-1.692,0-3.615,0.012-5.661,0.018
		c-2.324,0.013-4.811,0.025-7.291,0.025c-4.588,0-11.166-0.037-15.238-0.366C267.096,50.482,266.786,50.482,266.581,50.501
		 M286.78,63.651L286.78,63.651c-4.035,0-10.639-1.531-19.182-8.816l-0.28-0.23c-3.774-3.149-3.255-4.588-3.081-5.059
		c0.322-0.905,1.228-1.364,2.666-1.364c0.224,0,0.466,0.012,0.738,0.031c3.992,0.322,10.502,0.36,15.053,0.36
		c2.475,0,4.954-0.013,7.279-0.019c2.052-0.012,3.98-0.025,5.673-0.025c4.879,0,6.207,0.087,6.765,0.23
		c0.893,0.223,1.444,1.016,1.47,2.114c0.067,2.796-3.696,9.449-12.692,12.146C289.788,63.44,288.306,63.651,286.78,63.651"/>
	<path clip-path="url(#SVGID_2_)" d="M200.756,72.43c-2.61,0-3.912-0.787-4.538-1.42c-0.682-0.694-0.943-1.606-0.701-2.436
		c0.242-0.825,0.93-1.433,1.842-1.637c1.989-0.44,7.936-3.832,10.961-6.864c0.453-0.446,1.185-0.446,1.632,0
		c0.451,0.453,0.451,1.185,0,1.631c-3.176,3.174-9.506,6.907-12.091,7.483c-0.105,0.025-0.142,0.062-0.142,0.062
		c0.011-0.006,0.079,0.124,0.334,0.298c0.477,0.322,2.467,1.259,7.954-0.285c0.614-0.174,1.253,0.18,1.427,0.793
		c0.173,0.614-0.187,1.253-0.801,1.426C204.166,72.17,202.25,72.43,200.756,72.43"/>
	<path clip-path="url(#SVGID_2_)" d="M222.971,59.609c-1.835,1.376-1.277,3.075,0.769,3.329c2.052,0.261,2.207,0.391,4.1-1.023
		c2.051-1.537,2.305-4.098,0-3.844C225.531,58.332,223.992,58.84,222.971,59.609"/>
	<path clip-path="url(#SVGID_2_)" d="M217.588,60.632c0,1.277-1.028,2.306-2.3,2.306c-1.276,0-2.307-1.029-2.307-2.306
		c0-1.271,1.03-2.3,2.307-2.3C216.56,58.332,217.588,59.361,217.588,60.632"/>
	<path clip-path="url(#SVGID_2_)" d="M224.26,179.076c-8.965,0-17.762-3.838-23.337-8.4c-4.24-3.466-6.615-7.268-6.515-10.429
		c0.123-3.788,2.033-6.441,5.244-7.267c4.073-1.054,10.218,1.271,14.061,7.744c3.17,5.326,8.929,6.361,13.175,6.268
		c12.661-0.241,27.281-9.746,34.009-22.114c0.31-0.559,1.01-0.764,1.567-0.459c0.558,0.304,0.763,1.004,0.459,1.562
		c-7.093,13.039-22.567,23.064-35.991,23.318c-6.92,0.111-12.281-2.498-15.195-7.396c-3.268-5.499-8.266-7.526-11.515-6.689
		c-2.176,0.558-3.422,2.375-3.509,5.108c-0.08,2.406,2.04,5.605,5.667,8.575c6.522,5.332,17.714,9.616,28.012,7.179
		c18.929-4.481,35.812-19.759,40.14-36.318c0.161-0.614,0.787-0.986,1.406-0.825c0.614,0.161,0.986,0.794,0.824,1.407
		c-4.531,17.342-22.127,33.312-41.837,37.981C228.724,178.841,226.486,179.076,224.26,179.076"/>
	<path clip-path="url(#SVGID_2_)" d="M274.207,96.629c-0.272,0-0.552-0.099-0.775-0.298l-0.911-0.824
		c-7.451-6.74-11.954-10.813-18.785-12.227c-4.11-0.849-9.016,0.242-13.343,1.197c-3.287,0.732-6.112,1.364-8.32,1.128
		c-3.386-0.353-6.07-2.139-6.832-4.538c-0.54-1.693-0.392-4.408,3.373-7.719c7.037-6.194,20.051-8.085,29.623-4.309
		c0.595,0.236,0.88,0.905,0.65,1.494c-0.235,0.595-0.905,0.887-1.501,0.651c-8.835-3.49-20.806-1.779-27.249,3.894
		c-2.207,1.94-3.167,3.819-2.702,5.288c0.483,1.507,2.442,2.691,4.879,2.945c1.835,0.193,4.625-0.427,7.576-1.085
		c4.558-1.01,9.723-2.157,14.316-1.202c7.446,1.543,12.388,6.007,19.865,12.772l0.91,0.824c0.473,0.422,0.509,1.153,0.081,1.625
		C274.834,96.499,274.523,96.629,274.207,96.629"/>
	<path clip-path="url(#SVGID_2_)" fill="#FFD300" d="M192.485,117.25c-6.257-4.812-13.317-0.515-11.787,6.919
		c1.266,6.102,11.582,17.441,18.96,19.208c6.403,1.537,5.108-5.37,4.099-7.682C201.965,131.598,195.814,119.812,192.485,117.25"/>
	<path clip-path="url(#SVGID_2_)" d="M187.035,116.37c-1.655,0-3.118,0.676-4.117,1.897c-1.158,1.426-1.55,3.44-1.091,5.665
		c1.178,5.681,11.266,16.686,18.098,18.328c0.528,0.124,0.999,0.187,1.408,0.187c1.065,0,1.463-0.416,1.667-0.731
		c0.837-1.271,0.359-4.05-0.297-5.556c-1.892-4.328-7.894-15.661-10.918-17.999C190.26,116.99,188.615,116.37,187.035,116.37
		 M201.333,144.753L201.333,144.753c-0.59,0-1.247-0.087-1.941-0.254c-7.8-1.873-18.469-13.578-19.822-20.101
		c-0.6-2.913-0.042-5.611,1.563-7.588c1.426-1.743,3.572-2.747,5.902-2.747c2.096,0,4.223,0.788,6.156,2.274
		c3.794,2.921,10.23,15.718,11.625,18.893c0.576,1.32,1.724,5.288,0.118,7.75C204.4,143.786,203.348,144.753,201.333,144.753"/>
	<path clip-path="url(#SVGID_2_)" fill="#FFD300" d="M246.797,143.638c0,0-1.537,8.965-9.994,8.965
		c-8.45,0-4.867-10.248-5.89-16.907c-1.023-6.659-5.122-15.37,1.022-19.468c6.15-4.099,13.578,7.942,14.861,12.549
		C248.589,134.927,248.335,138.771,246.797,143.638"/>
	<path clip-path="url(#SVGID_2_)" d="M234.608,116.921c-0.639,0-1.234,0.192-1.817,0.583c-3.634,2.418-2.9,6.803-1.363,13.206
		c0.378,1.581,0.768,3.218,1.004,4.749c0.31,1.991,0.235,4.217,0.162,6.362c-0.112,3.341-0.224,6.789,1.214,8.276
		c0.627,0.65,1.612,0.968,2.995,0.968c7.03,0,8.426-7.378,8.481-7.694c0.012-0.062,0.025-0.131,0.043-0.199
		c1.37-4.34,1.779-7.85-0.006-13.962C244.181,125.1,238.749,116.921,234.608,116.921 M236.803,154.141
		c-2.232,0-3.987-0.64-5.207-1.903c-2.346-2.425-2.208-6.541-2.078-10.516c0.067-2.01,0.137-4.085-0.123-5.798
		c-0.218-1.4-0.577-2.906-0.956-4.501c-1.425-5.945-3.038-12.686,2.647-16.479c1.092-0.725,2.275-1.091,3.522-1.091
		c6.677,0,12.561,10.515,13.671,14.515c1.971,6.771,1.506,10.874,0.012,15.635C247.641,147.574,244.44,154.141,236.803,154.141"/>
	<path clip-path="url(#SVGID_2_)" d="M234.608,116.921c-0.639,0-1.234,0.192-1.817,0.583c-3.634,2.418-2.9,6.803-1.363,13.206
		c0.378,1.581,0.768,3.218,1.004,4.749c0.31,1.991,0.235,4.217,0.162,6.362c-0.112,3.341-0.224,6.789,1.214,8.276
		c0.627,0.65,1.612,0.968,2.995,0.968c7.03,0,8.426-7.378,8.481-7.694c0.012-0.062,0.025-0.131,0.043-0.199
		c1.37-4.34,1.779-7.85-0.006-13.962C244.181,125.1,238.749,116.921,234.608,116.921 M236.803,154.141
		c-2.232,0-3.987-0.64-5.207-1.903c-2.346-2.425-2.208-6.541-2.078-10.516c0.067-2.01,0.137-4.085-0.123-5.798
		c-0.218-1.4-0.577-2.906-0.956-4.501c-1.425-5.945-3.038-12.686,2.647-16.479c1.092-0.725,2.275-1.091,3.522-1.091
		c6.677,0,12.561,10.515,13.671,14.515c1.971,6.771,1.506,10.874,0.012,15.635C247.641,147.574,244.44,154.141,236.803,154.141"/>
	<path clip-path="url(#SVGID_2_)" fill="#FFD300" d="M205.809,74.209c-2.561-1.023-8.965,3.329-8.196,7.434
		c0.763,4.098,5.376,4.098,8.45,1.023C209.139,79.592,208.288,75.202,205.809,74.209"/>
	<path clip-path="url(#SVGID_2_)" d="M204.928,75.214c-1.239,0-3.509,1.116-5.01,2.92c-0.544,0.663-1.425,1.965-1.177,3.292
		c0.353,1.885,1.599,2.276,2.585,2.276c1.296,0,2.759-0.689,3.925-1.854c1.289-1.296,1.873-3.001,1.55-4.57
		c-0.198-0.973-0.731-1.723-1.42-1.996C205.264,75.239,205.109,75.214,204.928,75.214 M201.326,86.008L201.326,86.008
		c-2.511,0-4.371-1.593-4.849-4.154c-0.316-1.674,0.279-3.515,1.675-5.189c1.804-2.177,4.655-3.758,6.775-3.758
		c0.479,0,0.918,0.081,1.309,0.236c1.414,0.564,2.468,1.934,2.82,3.67c0.484,2.332-0.334,4.824-2.176,6.665
		C205.269,85.084,203.249,86.008,201.326,86.008"/>
	<path clip-path="url(#SVGID_2_)" fill="#FF0000" d="M190.393,98.851l-6.2,12.4c0,0-1.613,2.8-6.82,1.838
		c-5.209-0.961-6.318,6.295-3.714,6.776c2.604,0.481,7.643-2.828,9.647-2.146c2.008,0.681,4.228,4.795,6.615,5.233
		c2.388,0.441,3.865-1.412,5.819-1.052c1.953,0.361,3.739,5.214,7.046,6.136c3.311,0.921,4.255-1.095,5.83-1.116
		c1.574-0.021,2.632,7.642,8.764,8.46c6.131,0.821,6.46-4.613,9.064-4.133c2.606,0.48,5.152,6.135,7.755,6.614
		c2.606,0.481,5.284-4.312,8.615-4.111c3.328,0.199,7.04,9.915,11.563,10.328c4.523,0.41,3.149-4.301,7.059-4.203
		c3.91,0.101,3.673,6.851,9.431,7.264c5.761,0.414,2.34-5.404,6.698-4.704c4.359,0.701,6.782,6.52,9.359,5.254
		c12.819-6.302,6.353-9.439,4.295-10.797c-3.948-2.604-4.776-21.501-4.776-21.501"/>
	
		<path clip-path="url(#SVGID_2_)" fill="none" stroke="#000000" stroke-width="3.1" stroke-linecap="round" stroke-miterlimit="10" d="
		M190.393,98.851l-6.2,12.4c0,0-1.613,2.8-6.82,1.838c-5.209-0.961-6.318,6.295-3.714,6.776c2.604,0.481,7.643-2.828,9.647-2.146
		c2.008,0.681,4.228,4.795,6.615,5.233c2.388,0.441,3.865-1.412,5.819-1.052c1.953,0.361,3.739,5.214,7.046,6.136
		c3.311,0.921,4.255-1.095,5.83-1.116c1.574-0.021,2.632,7.642,8.764,8.46c6.131,0.821,6.46-4.613,9.064-4.133
		c2.606,0.48,5.152,6.135,7.755,6.614c2.606,0.481,5.284-4.312,8.615-4.111c3.328,0.199,7.04,9.915,11.563,10.328
		c4.523,0.41,3.149-4.301,7.059-4.203c3.91,0.101,3.673,6.851,9.431,7.264c5.761,0.414,2.34-5.404,6.698-4.704
		c4.359,0.701,6.782,6.52,9.359,5.254c12.819-6.302,6.353-9.439,4.295-10.797c-3.948-2.604-4.776-21.501-4.776-21.501"/>
	<path clip-path="url(#SVGID_2_)" fill="#FF0000" d="M287.063,115.812c0,0-1.032,7.317,2.916,9.92
		c2.058,1.357,9.145,5.735-3.676,12.037c-2.576,1.267-3.14-7.034-7.498-7.734c-4.358-0.699-0.938,3.258-6.698,2.844
		c-5.758-0.413-5.521-7.162-9.431-7.264c-3.909-0.098-2.535,4.614-7.06,4.203c-4.522-0.412-8.234-9.508-11.562-9.708
		c-3.331-0.199-4.149,5.213-6.755,4.732c-2.604-0.48-4.392-3.745-6.995-4.225c-2.605-0.481,10.647,1.977,4.517,1.154
		c-6.131-0.819-8.237-5.189-9.812-5.169c-1.575,0.021-3.126,4.751-8.034,4.589c-7.782-0.258-6.842-8.738-8.795-9.1
		c-1.953-0.36-2.446,5.443-10.631,3.125c-4.817-1.364-5.416-7.978-7.424-8.659c-2.006-0.68-7.664,2.008-10.268,1.527
		c-2.604-0.481-1.495-8.356,3.714-7.396c5.208,0.962,6.82-1.837,6.82-1.837s1.147-7.065,3.893-10.475
		c2.745-3.41,13.39-8.37,13.39-8.37s1.551,4.024,6.296,7.209c2.373,1.593,5.501,2.318,7.557,2.705
		c5.757,1.085,15.688-1.416,15.688-1.416l8.072-3.839l20.513-1.44L287.063,115.812z"/>
	
		<path clip-path="url(#SVGID_2_)" fill="none" stroke="#000000" stroke-width="3.1" stroke-linecap="round" stroke-miterlimit="10" d="
		M287.063,115.812c0,0-1.032,7.317,2.916,9.92c2.058,1.357,9.145,5.735-3.676,12.037c-2.576,1.267-3.14-7.034-7.498-7.734
		c-4.358-0.699-0.938,3.258-6.698,2.844c-5.758-0.413-5.521-7.162-9.431-7.264c-3.909-0.098-2.535,4.614-7.06,4.203
		c-4.522-0.412-8.234-9.508-11.562-9.708c-3.331-0.199-4.149,5.213-6.755,4.732c-2.604-0.48-4.392-3.745-6.995-4.225
		c-2.605-0.481,10.647,1.977,4.517,1.154c-6.131-0.819-8.237-5.189-9.812-5.169c-1.575,0.021-3.126,4.751-8.034,4.589
		c-7.782-0.258-6.842-8.738-8.795-9.1c-1.953-0.36-2.446,5.443-10.631,3.125c-4.817-1.364-5.416-7.978-7.424-8.659
		c-2.006-0.68-7.664,2.008-10.268,1.527c-2.604-0.481-1.495-8.356,3.714-7.396c5.208,0.962,6.82-1.837,6.82-1.837
		s1.147-7.065,3.893-10.475c2.745-3.41,13.39-8.37,13.39-8.37s1.551,4.024,6.296,7.209c2.373,1.593,5.501,2.318,7.557,2.705
		c5.757,1.085,15.688-1.416,15.688-1.416l8.072-3.839l20.513-1.44L287.063,115.812z"/>
	<path clip-path="url(#SVGID_2_)" d="M244.236,54.227c0,1.277-1.035,2.306-2.306,2.306c-1.277,0-2.307-1.029-2.307-2.306
		c0-1.271,1.029-2.3,2.307-2.3C243.201,51.927,244.236,52.956,244.236,54.227"/>
	<path clip-path="url(#SVGID_2_)" fill="#FF0000" d="M273.457,111.106c0.494-5.883-8.742-26.14-15.796-26.218
		c-0.027-0.001-8.487,14.322-9.854,14.543c-1.434,0.231-1.109-24.562,1.82-31.721c1.809-4.417,6.784,0.689,9.26,2.823
		c0.484,0.417,19.983-3.753,24.5,0.845c6.269,6.384,4.907,38.853,0.826,45.208C284.027,116.875,281.053,113.198,273.457,111.106"/>
	<path clip-path="url(#SVGID_2_)" fill="none" stroke="#000000" stroke-width="1.86" stroke-miterlimit="10" d="M273.457,111.106
		c0.494-5.883-8.742-26.14-15.796-26.218c-0.027-0.001-8.487,14.322-9.854,14.543c-1.434,0.231-1.109-24.562,1.82-31.721
		c1.809-4.417,6.784,0.689,9.26,2.823c0.484,0.417,19.983-3.753,24.5,0.845c6.269,6.384,4.907,38.853,0.826,45.208
		C284.027,116.875,281.053,113.198,273.457,111.106z"/>
	<polygon clip-path="url(#SVGID_2_)" fill="#AA662B" points="136.093,61.837 128.284,54.029 138.765,38.205 151.917,51.357 	"/>
	<polygon clip-path="url(#SVGID_2_)" fill="none" stroke="#000000" stroke-width="1.614" stroke-miterlimit="10" points="
		136.093,61.837 128.284,54.029 138.765,38.205 151.917,51.357 	"/>
	<path clip-path="url(#SVGID_2_)" d="M135.296,42.012c-0.423,0.423-1.11,0.423-1.535,0c-0.423-0.424-0.423-1.111,0-1.534
		c0.425-0.424,1.112-0.424,1.535,0C135.72,40.901,135.72,41.588,135.296,42.012"/>
	<path clip-path="url(#SVGID_2_)" d="M132.845,45.778c-0.423,0.423-1.111,0.423-1.535,0c-0.423-0.423-0.423-1.111,0-1.534
		c0.424-0.425,1.111-0.424,1.535,0C133.268,44.667,133.269,45.354,132.845,45.778"/>
	<path clip-path="url(#SVGID_2_)" d="M130.376,49.582c-0.423,0.423-1.111,0.423-1.535,0c-0.423-0.424-0.423-1.111,0-1.534
		c0.424-0.424,1.112-0.424,1.535,0C130.799,48.471,130.799,49.158,130.376,49.582"/>
	<path clip-path="url(#SVGID_2_)" d="M148.069,54.785c-0.423,0.423-0.423,1.111,0,1.534c0.425,0.424,1.111,0.424,1.534,0
		c0.424-0.423,0.424-1.111,0-1.534C149.181,54.361,148.494,54.361,148.069,54.785"/>
	<path clip-path="url(#SVGID_2_)" d="M144.303,57.236c-0.423,0.423-0.423,1.111,0,1.535c0.423,0.423,1.111,0.423,1.534,0
		c0.424-0.424,0.424-1.111,0-1.535C145.414,56.813,144.727,56.812,144.303,57.236"/>
	<path clip-path="url(#SVGID_2_)" d="M140.499,59.706c-0.423,0.423-0.423,1.111,0,1.535c0.425,0.423,1.111,0.423,1.534,0
		c0.424-0.424,0.424-1.112,0-1.535C141.61,59.283,140.924,59.283,140.499,59.706"/>
	<path clip-path="url(#SVGID_2_)" fill="#FFFFFF" d="M141.457,44.625c-0.424-0.423-1.11-0.423-1.535,0l-7.891,7.891l0.013,0.013
		c-0.049,0.035-0.097,0.072-0.141,0.116c-0.424,0.423-0.424,1.111,0,1.534c0.423,0.424,1.111,0.424,1.534,0
		c0.044-0.044,0.081-0.092,0.116-0.141l0.013,0.013l7.891-7.891C141.88,45.735,141.88,45.047,141.457,44.625"/>
	<path clip-path="url(#SVGID_2_)" fill="none" stroke="#1E120D" stroke-width="0.62" stroke-miterlimit="10" d="M141.457,44.625
		c-0.424-0.423-1.11-0.423-1.535,0l-7.891,7.891l0.013,0.013c-0.049,0.035-0.097,0.072-0.141,0.116
		c-0.424,0.423-0.424,1.111,0,1.534c0.423,0.424,1.111,0.424,1.534,0c0.044-0.044,0.081-0.092,0.116-0.141l0.013,0.013l7.891-7.891
		C141.88,45.735,141.88,45.047,141.457,44.625z"/>
	<path clip-path="url(#SVGID_2_)" fill="#FFFFFF" d="M145.498,48.665c-0.425-0.423-1.111-0.424-1.535,0l-7.892,7.891l0.014,0.013
		c-0.05,0.035-0.098,0.072-0.142,0.116c-0.424,0.423-0.424,1.111,0,1.534c0.423,0.424,1.111,0.424,1.534,0
		c0.044-0.044,0.081-0.092,0.116-0.141l0.013,0.013l7.892-7.891C145.921,49.775,145.921,49.087,145.498,48.665"/>
	<path clip-path="url(#SVGID_2_)" fill="none" stroke="#1E120D" stroke-width="0.62" stroke-miterlimit="10" d="M145.498,48.665
		c-0.425-0.423-1.111-0.424-1.535,0l-7.892,7.891l0.014,0.013c-0.05,0.035-0.098,0.072-0.142,0.116
		c-0.424,0.423-0.424,1.111,0,1.534c0.423,0.424,1.111,0.424,1.534,0c0.044-0.044,0.081-0.092,0.116-0.141l0.013,0.013l7.892-7.891
		C145.921,49.775,145.921,49.087,145.498,48.665z"/>
	<path clip-path="url(#SVGID_2_)" fill="#FF0000" d="M301.031,59.673c0,2.912-2.362,5.272-5.272,5.272
		c-2.913,0-5.273-2.36-5.273-5.272s2.36-5.272,5.273-5.272C298.669,54.401,301.031,56.761,301.031,59.673"/>
	
		<circle clip-path="url(#SVGID_2_)" fill="none" stroke="#000000" stroke-width="1.24" stroke-miterlimit="10" cx="295.758" cy="59.673" r="5.273"/>
	<path clip-path="url(#SVGID_2_)" fill="#FF0000" d="M295.759,65.334c-7.765,0-14.061,5.901-14.061,13.18
		c0,7.28,6.296,13.182,14.061,13.182c7.764,0,14.06-5.902,14.06-13.182C309.818,71.235,303.522,65.334,295.759,65.334
		 M295.759,81.806c-3.884,0-7.03-2.95-7.03-6.59s3.146-6.591,7.03-6.591c3.881,0,7.03,2.951,7.03,6.591
		S299.64,81.806,295.759,81.806"/>
	<path clip-path="url(#SVGID_2_)" fill="none" stroke="#000000" stroke-width="1.24" stroke-miterlimit="10" d="M295.759,65.334
		c-7.765,0-14.061,5.901-14.061,13.18c0,7.28,6.296,13.182,14.061,13.182c7.764,0,14.06-5.902,14.06-13.182
		C309.818,71.235,303.522,65.334,295.759,65.334z M295.759,81.806c-3.884,0-7.03-2.95-7.03-6.59s3.146-6.591,7.03-6.591
		c3.881,0,7.03,2.951,7.03,6.591S299.64,81.806,295.759,81.806z"/>
	<path clip-path="url(#SVGID_2_)" fill="#FF0000" d="M247.131,86.862c0,1.213-0.983,2.197-2.197,2.197
		c-1.213,0-2.196-0.984-2.196-2.197c0-1.213,0.983-2.197,2.196-2.197C246.147,84.666,247.131,85.649,247.131,86.862"/>
	
		<circle clip-path="url(#SVGID_2_)" fill="none" stroke="#000000" stroke-width="1.24" stroke-miterlimit="10" cx="244.934" cy="86.862" r="2.197"/>
	<path clip-path="url(#SVGID_2_)" fill="#FF0000" d="M242.486,89.765c0,1.456-1.18,2.636-2.636,2.636s-2.636-1.18-2.636-2.636
		s1.18-2.636,2.636-2.636S242.486,88.309,242.486,89.765"/>
	
		<circle clip-path="url(#SVGID_2_)" fill="none" stroke="#000000" stroke-width="1.24" stroke-miterlimit="10" cx="239.851" cy="89.765" r="2.636"/>
	<path clip-path="url(#SVGID_2_)" fill="#FF0000" d="M236.89,91.904c0,1.456-1.182,2.636-2.636,2.636
		c-1.457,0-2.637-1.18-2.637-2.636s1.18-2.636,2.637-2.636C235.708,89.268,236.89,90.448,236.89,91.904"/>
	
		<circle clip-path="url(#SVGID_2_)" fill="none" stroke="#000000" stroke-width="1.24" stroke-miterlimit="10" cx="234.253" cy="91.904" r="2.636"/>
	<path clip-path="url(#SVGID_2_)" fill="#FF0000" d="M230.997,92.709c0,1.698-1.378,3.075-3.075,3.075
		c-1.699,0-3.076-1.377-3.076-3.075c0-1.699,1.377-3.076,3.076-3.076C229.619,89.633,230.997,91.011,230.997,92.709"/>
	
		<circle clip-path="url(#SVGID_2_)" fill="none" stroke="#000000" stroke-width="1.24" stroke-miterlimit="10" cx="227.921" cy="92.709" r="3.076"/>
	<path clip-path="url(#SVGID_2_)" fill="#FF0000" d="M224.006,93.28c0,1.941-1.574,3.515-3.516,3.515s-3.515-1.574-3.515-3.515
		c0-1.942,1.573-3.515,3.515-3.515S224.006,91.338,224.006,93.28"/>
	
		<circle clip-path="url(#SVGID_2_)" fill="none" stroke="#000000" stroke-width="1.24" stroke-miterlimit="10" cx="220.491" cy="93.28" r="3.515"/>
	<path clip-path="url(#SVGID_2_)" fill="#FF0000" d="M216.976,90.19c0,1.698-1.378,3.075-3.076,3.075s-3.075-1.377-3.075-3.075
		c0-1.699,1.377-3.076,3.075-3.076S216.976,88.491,216.976,90.19"/>
	
		<circle clip-path="url(#SVGID_2_)" fill="none" stroke="#000000" stroke-width="1.24" stroke-miterlimit="10" cx="213.9" cy="90.19" r="3.076"/>
	<path clip-path="url(#SVGID_2_)" fill="#FF0000" d="M211.21,85.869c0,1.456-1.18,2.636-2.636,2.636
		c-1.457,0-2.636-1.18-2.636-2.636s1.179-2.636,2.636-2.636C210.03,83.232,211.21,84.413,211.21,85.869"/>
	
		<circle clip-path="url(#SVGID_2_)" fill="none" stroke="#000000" stroke-width="1.24" stroke-miterlimit="10" cx="208.574" cy="85.869" r="2.636"/>
	<polygon clip-path="url(#SVGID_2_)" fill="#FF0000" points="239.746,36.817 240.595,40.563 239.14,41.812 240.595,42.935 
		241.322,44.246 242.654,44.246 243.745,44.933 245.927,44.933 246.352,45.62 247.927,45.62 248.693,48.656 251.321,45.169 
		251.737,45.472 253.488,42.451 253.14,41.406 251.67,40.368 251.307,38.823 249.375,39.431 248.886,37.078 245.564,38.815 
		244.353,37.129 242.716,38.128 	"/>
	
		<polygon clip-path="url(#SVGID_2_)" fill="none" stroke="#000000" stroke-width="0.93" stroke-linecap="round" stroke-linejoin="round" stroke-miterlimit="10" points="
		239.746,36.817 240.595,40.563 239.14,41.812 240.595,42.935 241.322,44.246 242.654,44.246 243.745,44.933 245.927,44.933 
		246.352,45.62 247.927,45.62 248.693,48.656 251.321,45.169 251.737,45.472 253.488,42.451 253.14,41.406 251.67,40.368 
		251.307,38.823 249.375,39.431 248.886,37.078 245.564,38.815 244.353,37.129 242.716,38.128 	"/>
	<polygon clip-path="url(#SVGID_2_)" fill="#FF0000" points="253.504,41.405 253.745,42.561 251.928,45.619 253.268,47.375 
		254.291,45.994 256.229,46.805 256.721,45.382 257.563,46.306 258.169,44.995 259.261,45.37 259.745,43.809 261.808,44.105 
		260.715,42.374 262.958,42.811 262.958,42.062 264.23,42.311 263.08,40 264.775,40.375 264.108,37.691 264.775,36.816 
		263.14,35.63 263.2,34.256 260.049,35.193 258.049,35.88 258.352,39.563 256.533,38.502 255.504,40.125 254.836,42.249 	"/>
	
		<polygon clip-path="url(#SVGID_2_)" fill="none" stroke="#000000" stroke-width="0.93" stroke-linecap="round" stroke-linejoin="round" stroke-miterlimit="10" points="
		253.504,41.405 253.745,42.561 251.928,45.619 253.268,47.375 254.291,45.994 256.229,46.805 256.721,45.382 257.563,46.306 
		258.169,44.995 259.261,45.37 259.745,43.809 261.808,44.105 260.715,42.374 262.958,42.811 262.958,42.062 264.23,42.311 
		263.08,40 264.775,40.375 264.108,37.691 264.775,36.816 263.14,35.63 263.2,34.256 260.049,35.193 258.049,35.88 258.352,39.563 
		256.533,38.502 255.504,40.125 254.836,42.249 	"/>
	<polygon clip-path="url(#SVGID_2_)" fill="#FF0000" points="254.67,41.842 256.237,38.4 254.988,34.881 256.412,32.383 
		256.412,30.574 254.291,31.384 253.928,30.574 252.837,31.509 251.928,30.574 251.14,31.509 250.594,30.824 249.928,32.071 
		249.14,32.82 250.049,34.256 251.988,34.492 252.775,35.489 253.746,35.255 252.775,36.816 254.049,36.816 253.564,39.001 	"/>
	
		<polygon clip-path="url(#SVGID_2_)" fill="none" stroke="#000000" stroke-width="0.93" stroke-linecap="round" stroke-linejoin="round" stroke-miterlimit="10" points="
		254.67,41.842 256.237,38.4 254.988,34.881 256.412,32.383 256.412,30.574 254.291,31.384 253.928,30.574 252.837,31.509 
		251.928,30.574 251.14,31.509 250.594,30.824 249.928,32.071 249.14,32.82 250.049,34.256 251.988,34.492 252.775,35.489 
		253.746,35.255 252.775,36.816 254.049,36.816 253.564,39.001 	"/>
	<polygon clip-path="url(#SVGID_2_)" fill="#FF0000" points="254.216,41.562 251.928,40.391 251.321,38.127 250.473,39.33 
		249.629,38.997 249.14,36.816 248.352,36.816 247.806,35.817 248.171,34.632 248.837,34.632 249.14,34.257 250.048,34.757 
		251.928,34.693 253.141,35.639 252.775,37.066 253.782,37.137 253.328,39.126 	"/>
	
		<polygon clip-path="url(#SVGID_2_)" fill="none" stroke="#000000" stroke-width="0.93" stroke-linecap="round" stroke-linejoin="round" stroke-miterlimit="10" points="
		254.216,41.562 251.928,40.391 251.321,38.127 250.473,39.33 249.629,38.997 249.14,36.816 248.352,36.816 247.806,35.817 
		248.171,34.632 248.837,34.632 249.14,34.257 250.048,34.757 251.928,34.693 253.141,35.639 252.775,37.066 253.782,37.137 
		253.328,39.126 	"/>
	<polygon clip-path="url(#SVGID_2_)" fill="#FF0000" points="265.761,31.167 264.775,32.478 263.261,32.806 263.579,34.257 
		263.532,35.194 264.775,36.552 264.51,37.815 264.775,39.362 266.261,39.034 268.261,36.27 266.715,35.817 266.987,34.679 
		266.307,34.632 266.761,33.04 265.761,32.759 	"/>
	
		<polygon clip-path="url(#SVGID_2_)" fill="none" stroke="#000000" stroke-width="0.93" stroke-linecap="round" stroke-linejoin="round" stroke-miterlimit="10" points="
		265.761,31.167 264.775,32.478 263.261,32.806 263.579,34.257 263.532,35.194 264.775,36.552 264.51,37.815 264.775,39.362 
		266.261,39.034 268.261,36.27 266.715,35.817 266.987,34.679 266.307,34.632 266.761,33.04 265.761,32.759 	"/>
	<polygon clip-path="url(#SVGID_2_)" fill="#FF0000" points="266.942,39.127 267.579,39.875 268.261,39.875 268.261,41.062 
		268.942,41.406 267.442,43.341 265.761,43.716 266.761,44.371 264.578,45.308 265.215,46.525 263.26,47.322 262.898,48.679 
		261.67,48.304 261.67,49.616 260.806,49.1 260.352,50.224 258.76,49.146 258.76,52.05 256.67,50.318 255.988,51.208 
		253.716,49.616 252.534,50.599 249.14,48.632 251.396,45.589 253.14,47.509 254.505,46.085 256.412,47.181 256.988,45.995 
		257.896,46.806 258.352,45.589 259.396,45.589 260.215,44.184 262.169,44.465 261.67,43.06 263.26,43.2 263.26,42.311 
		264.776,42.592 263.567,40.38 265.225,40.518 264.776,39.619 265.837,39.127 	"/>
	
		<polygon clip-path="url(#SVGID_2_)" fill="none" stroke="#000000" stroke-width="0.93" stroke-linecap="round" stroke-linejoin="round" stroke-miterlimit="10" points="
		266.942,39.127 267.579,39.875 268.261,39.875 268.261,41.062 268.942,41.406 267.442,43.341 265.761,43.716 266.761,44.371 
		264.578,45.308 265.215,46.525 263.26,47.322 262.898,48.679 261.67,48.304 261.67,49.616 260.806,49.1 260.352,50.224 
		258.76,49.146 258.76,52.05 256.67,50.318 255.988,51.208 253.716,49.616 252.534,50.599 249.14,48.632 251.396,45.589 
		253.14,47.509 254.505,46.085 256.412,47.181 256.988,45.995 257.896,46.806 258.352,45.589 259.396,45.589 260.215,44.184 
		262.169,44.465 261.67,43.06 263.26,43.2 263.26,42.311 264.776,42.592 263.567,40.38 265.225,40.518 264.776,39.619 
		265.837,39.127 	"/>
	<polygon clip-path="url(#SVGID_2_)" fill="#FF0000" points="251.17,26.203 251.928,26.39 252.775,25.688 253.443,26.39 
		254.033,25.688 255.17,26.905 255.716,26.905 256.17,27.561 255.624,28.919 254.533,27.748 253.896,28.919 253.443,28.498 
		251.795,29.376 250.623,28.076 250.261,26.859 	"/>
	
		<polygon clip-path="url(#SVGID_2_)" fill="none" stroke="#000000" stroke-width="0.93" stroke-linecap="round" stroke-linejoin="round" stroke-miterlimit="10" points="
		251.17,26.203 251.928,26.39 252.775,25.688 253.443,26.39 254.033,25.688 255.17,26.905 255.716,26.905 256.17,27.561 
		255.624,28.919 254.533,27.748 253.896,28.919 253.443,28.498 251.795,29.376 250.623,28.076 250.261,26.859 	"/>
	<polygon clip-path="url(#SVGID_2_)" fill="#FF0000" points="249.488,27.42 248.716,26.391 247.216,26.016 245.715,26.719 
		244.17,27.42 244.988,28.638 246.397,29.153 247.17,30.09 247.806,28.451 249.14,28.919 	"/>
	
		<polygon clip-path="url(#SVGID_2_)" fill="none" stroke="#000000" stroke-width="0.93" stroke-linecap="round" stroke-linejoin="round" stroke-miterlimit="10" points="
		249.488,27.42 248.716,26.391 247.216,26.016 245.715,26.719 244.17,27.42 244.988,28.638 246.397,29.153 247.17,30.09 
		247.806,28.451 249.14,28.919 	"/>
	<line clip-path="url(#SVGID_2_)" fill="#FF0000" x1="252.17" y1="29.528" x2="253.215" y2="28.919"/>
	
		<line clip-path="url(#SVGID_2_)" fill="none" stroke="#000000" stroke-width="0.93" stroke-linecap="round" stroke-linejoin="round" stroke-miterlimit="10" x1="252.17" y1="29.528" x2="253.215" y2="28.919"/>
	<polygon clip-path="url(#SVGID_2_)" fill="#FF0000" points="252.17,30.276 252.775,30.979 253.988,30.276 254.407,30.961 
		256.412,30.089 256.715,32.337 257.988,31.213 257.988,28.918 256.412,27.42 255.535,28.498 254.669,28.053 253.442,28.918 
		251.928,29.527 	"/>
	
		<polygon clip-path="url(#SVGID_2_)" fill="none" stroke="#000000" stroke-width="0.93" stroke-linecap="round" stroke-linejoin="round" stroke-miterlimit="10" points="
		252.17,30.276 252.775,30.979 253.988,30.276 254.407,30.961 256.412,30.089 256.715,32.337 257.988,31.213 257.988,28.918 
		256.412,27.42 255.535,28.498 254.669,28.053 253.442,28.918 251.928,29.527 	"/>
	<polygon clip-path="url(#SVGID_2_)" fill="#FF0000" points="258.102,39.01 257.76,35.756 259.557,34.889 260.261,32.712 
		258.782,32.969 257.556,33.672 256.624,33.087 255.328,34.865 255.328,36.364 255.783,38.097 	"/>
	
		<polygon clip-path="url(#SVGID_2_)" fill="none" stroke="#000000" stroke-width="0.93" stroke-linecap="round" stroke-linejoin="round" stroke-miterlimit="10" points="
		258.102,39.01 257.76,35.756 259.557,34.889 260.261,32.712 258.782,32.969 257.556,33.672 256.624,33.087 255.328,34.865 
		255.328,36.364 255.783,38.097 	"/>
	<polygon clip-path="url(#SVGID_2_)" fill="#FF0000" points="262.139,30.355 262.867,31.167 263.776,30.573 263.776,31.666 
		262.957,32.337 263.08,33.727 260.018,34.756 260.866,32.337 260.018,32.041 259.503,30.573 260.441,30.573 260.715,29.528 
		261.837,30.09 	"/>
	
		<polygon clip-path="url(#SVGID_2_)" fill="none" stroke="#000000" stroke-width="0.93" stroke-linecap="round" stroke-linejoin="round" stroke-miterlimit="10" points="
		262.139,30.355 262.867,31.167 263.776,30.573 263.776,31.666 262.957,32.337 263.08,33.727 260.018,34.756 260.866,32.337 
		260.018,32.041 259.503,30.573 260.441,30.573 260.715,29.528 261.837,30.09 	"/>
	<polygon clip-path="url(#SVGID_2_)" fill="#FF0000" points="261.383,28.419 259.837,28.232 259.04,27.857 258.352,28.575 
		258.352,31.385 256.746,32.571 257.473,33.195 258.595,32.54 260.079,32.337 259.504,31.353 260.745,29.153 	"/>
	
		<polygon clip-path="url(#SVGID_2_)" fill="none" stroke="#000000" stroke-width="0.93" stroke-linecap="round" stroke-linejoin="round" stroke-miterlimit="10" points="
		261.383,28.419 259.837,28.232 259.04,27.857 258.352,28.575 258.352,31.385 256.746,32.571 257.473,33.195 258.595,32.54 
		260.079,32.337 259.504,31.353 260.745,29.153 	"/>
	<polygon clip-path="url(#SVGID_2_)" fill="#FF0000" points="249.958,28.053 251.413,29.154 251.655,30.229 251.159,31.038 
		250.535,30.09 249.818,31.916 248.716,32.712 247.11,30.573 248.019,28.919 249.019,29.224 	"/>
	
		<polygon clip-path="url(#SVGID_2_)" fill="none" stroke="#000000" stroke-width="0.93" stroke-linecap="round" stroke-linejoin="round" stroke-miterlimit="10" points="
		249.958,28.053 251.413,29.154 251.655,30.229 251.159,31.038 250.535,30.09 249.818,31.916 248.716,32.712 247.11,30.573 
		248.019,28.919 249.019,29.224 	"/>
	<polygon clip-path="url(#SVGID_2_)" fill="#FF0000" points="246.192,29.411 245.23,29.153 243.959,27.858 243.473,29.223 
		241.957,29.223 242.172,30.885 241.109,30.526 238.475,33.009 238.746,34.257 237.171,34.257 237.626,35.264 236.505,36.005 
		238.231,36.692 239.412,36.169 242.595,37.691 244.474,36.661 245.745,38.253 248.05,37.005 247.522,35.556 248.579,34.257 
		249.647,34.257 	"/>
	
		<polygon clip-path="url(#SVGID_2_)" fill="none" stroke="#000000" stroke-width="0.93" stroke-linecap="round" stroke-linejoin="round" stroke-miterlimit="10" points="
		246.192,29.411 245.23,29.153 243.959,27.858 243.473,29.223 241.957,29.223 242.172,30.885 241.109,30.526 238.475,33.009 
		238.746,34.257 237.171,34.257 237.626,35.264 236.505,36.005 238.231,36.692 239.412,36.169 242.595,37.691 244.474,36.661 
		245.745,38.253 248.05,37.005 247.522,35.556 248.579,34.257 249.647,34.257 	"/>
	<polygon clip-path="url(#SVGID_2_)" fill="#FF0000" points="235.784,36.469 236.591,36.656 238.228,37.066 239.318,36.586 
		239.614,38.366 240.159,40.32 238.624,41.737 240.283,43.2 241.057,44.582 236.898,44.897 236.033,43.996 234.397,43.309 
		233.791,42.295 235.912,41.826 235.457,40.683 234.079,39.221 235.609,38.065 	"/>
	
		<polygon clip-path="url(#SVGID_2_)" fill="none" stroke="#000000" stroke-width="0.93" stroke-linecap="round" stroke-linejoin="round" stroke-miterlimit="10" points="
		235.784,36.469 236.591,36.656 238.228,37.066 239.318,36.586 239.614,38.366 240.159,40.32 238.624,41.737 240.283,43.2 
		241.057,44.582 236.898,44.897 236.033,43.996 234.397,43.309 233.791,42.295 235.912,41.826 235.457,40.683 234.079,39.221 
		235.609,38.065 	"/>
	<polygon clip-path="url(#SVGID_2_)" fill="#FF0000" points="237.424,45.272 238.139,46.836 239.807,46.836 239.504,48.929 
		242.413,47.835 242.413,49.179 244.17,48.523 245.503,49.741 247.292,50.021 248.466,49.265 247.573,45.995 246.17,46.15 
		245.746,45.214 243.715,45.39 242.564,44.559 241.533,44.559 240.408,45.179 	"/>
	
		<polygon clip-path="url(#SVGID_2_)" fill="none" stroke="#000000" stroke-width="0.93" stroke-linecap="round" stroke-linejoin="round" stroke-miterlimit="10" points="
		237.424,45.272 238.139,46.836 239.807,46.836 239.504,48.929 242.413,47.835 242.413,49.179 244.17,48.523 245.503,49.741 
		247.292,50.021 248.466,49.265 247.573,45.995 246.17,46.15 245.746,45.214 243.715,45.39 242.564,44.559 241.533,44.559 
		240.408,45.179 	"/>
	<path clip-path="url(#SVGID_2_)" d="M234.608,116.921c-0.639,0-1.234,0.192-1.817,0.583c-3.634,2.418-2.9,6.803-1.363,13.206
		c0.378,1.581,0.768,3.218,1.004,4.749c0.31,1.991,0.235,4.217,0.162,6.362c-0.112,3.341-0.224,6.789,1.214,8.276
		c0.627,0.65,1.612,0.968,2.995,0.968c7.03,0,8.426-7.378,8.481-7.694c0.012-0.062,0.025-0.131,0.043-0.199
		c1.37-4.34,1.779-7.85-0.006-13.962C244.181,125.1,238.749,116.921,234.608,116.921 M236.803,154.141
		c-2.232,0-3.987-0.64-5.207-1.903c-2.346-2.425-2.208-6.541-2.078-10.516c0.067-2.01,0.137-4.085-0.123-5.798
		c-0.218-1.4-0.577-2.906-0.956-4.501c-1.425-5.945-3.038-12.686,2.647-16.479c1.092-0.725,2.275-1.091,3.522-1.091
		c6.677,0,12.561,10.515,13.671,14.515c1.971,6.771,1.506,10.874,0.012,15.635C247.641,147.574,244.44,154.141,236.803,154.141"/>
	<path clip-path="url(#SVGID_2_)" d="M201.333,144.753L201.333,144.753c-0.59,0-1.247-0.087-1.941-0.254
		c-7.8-1.873-18.469-13.578-19.822-20.101c-0.6-2.913-0.042-5.611,1.563-7.588c1.426-1.743,3.572-2.747,5.902-2.747
		c2.096,0,4.223,0.788,6.156,2.274c3.794,2.921,10.23,15.718,11.625,18.893c0.576,1.32,1.724,5.288,0.118,7.75
		C204.4,143.786,203.348,144.753,201.333,144.753"/>
	<path clip-path="url(#SVGID_2_)" fill="#DE9B00" d="M246.23,142.992c0,0-1.435,8.363-9.325,8.363
		c-7.884,0-4.541-9.562-5.496-15.774c-0.954-6.213-4.778-14.34,0.955-18.163c5.738-3.824,12.669,7.409,13.866,11.709
		C247.902,134.864,247.665,138.452,246.23,142.992"/>
	<path clip-path="url(#SVGID_2_)" fill="#AA662B" d="M241.852,144.528c0,2.912-1.574,5.272-3.516,5.272
		c-1.94,0-3.515-2.36-3.515-5.272s1.574-0.931,3.515-0.931C240.277,143.598,241.852,141.616,241.852,144.528"/>
	<path clip-path="url(#SVGID_2_)" fill="none" stroke="#000000" stroke-width="1.413" stroke-miterlimit="10" d="M241.852,144.528
		c0,2.912-1.574,5.272-3.516,5.272c-1.94,0-3.515-2.36-3.515-5.272s1.574-0.931,3.515-0.931
		C240.277,143.598,241.852,141.616,241.852,144.528z"/>
	<path clip-path="url(#SVGID_2_)" fill="#AA662B" d="M241.153,144.528c0,2.912-1.573,5.272-3.515,5.272
		c-1.94,0-3.515-2.36-3.515-5.272s1.574-0.931,3.515-0.931C239.58,143.598,241.153,141.616,241.153,144.528"/>
	<path clip-path="url(#SVGID_2_)" fill="none" stroke="#000000" stroke-width="1.413" stroke-miterlimit="10" d="M241.153,144.528
		c0,2.912-1.573,5.272-3.515,5.272c-1.94,0-3.515-2.36-3.515-5.272s1.574-0.931,3.515-0.931
		C239.58,143.598,241.153,141.616,241.153,144.528z"/>
	<path clip-path="url(#SVGID_2_)" fill="#AA662B" d="M240.456,144.528c0,2.912-1.574,5.272-3.515,5.272
		c-1.941,0-3.515-2.36-3.515-5.272s1.573-0.931,3.515-0.931C238.882,143.598,240.456,141.616,240.456,144.528"/>
	<path clip-path="url(#SVGID_2_)" fill="none" stroke="#000000" stroke-width="1.413" stroke-miterlimit="10" d="M240.456,144.528
		c0,2.912-1.574,5.272-3.515,5.272c-1.941,0-3.515-2.36-3.515-5.272s1.573-0.931,3.515-0.931
		C238.882,143.598,240.456,141.616,240.456,144.528z"/>
	<path clip-path="url(#SVGID_2_)" fill="#AA662B" d="M239.759,144.528c0,2.912-1.574,5.272-3.515,5.272
		c-1.941,0-3.516-2.36-3.516-5.272s1.574-0.931,3.516-0.931C238.185,143.598,239.759,141.616,239.759,144.528"/>
	<path clip-path="url(#SVGID_2_)" fill="none" stroke="#000000" stroke-width="1.413" stroke-miterlimit="10" d="M239.759,144.528
		c0,2.912-1.574,5.272-3.515,5.272c-1.941,0-3.516-2.36-3.516-5.272s1.574-0.931,3.516-0.931
		C238.185,143.598,239.759,141.616,239.759,144.528z"/>
	<path clip-path="url(#SVGID_2_)" fill="#DE9B00" d="M186.292,116.698c-1.692,0-3.188,0.69-4.209,1.939
		c-1.185,1.457-1.586,3.519-1.116,5.793c1.204,5.808,11.518,17.058,18.504,18.737c0.539,0.127,1.02,0.19,1.438,0.19
		c1.089,0,1.496-0.426,1.704-0.747c0.856-1.3,0.368-4.141-0.304-5.681c-1.934-4.424-8.069-16.011-11.162-18.4
		C189.588,117.332,187.908,116.698,186.292,116.698"/>
	<path clip-path="url(#SVGID_2_)" fill="#AA662B" d="M198.366,133.176c1.836,2.261,2.104,5.085,0.596,6.31
		c-1.506,1.223-4.216,0.385-6.053-1.877c-1.836-2.261,0.635-1.715,2.142-2.938C196.557,133.446,196.53,130.915,198.366,133.176"/>
	<path clip-path="url(#SVGID_2_)" fill="none" stroke="#000000" stroke-width="1.413" stroke-miterlimit="10" d="M198.366,133.176
		c1.836,2.261,2.104,5.085,0.596,6.31c-1.506,1.223-4.216,0.385-6.053-1.877c-1.836-2.261,0.635-1.715,2.142-2.938
		C196.557,133.446,196.53,130.915,198.366,133.176z"/>
	<path clip-path="url(#SVGID_2_)" fill="#AA662B" d="M198.755,133.799c1.836,2.261,2.104,5.085,0.596,6.309
		c-1.506,1.223-4.216,0.385-6.053-1.877c-1.836-2.26,0.635-1.714,2.142-2.938C196.945,134.068,196.919,131.537,198.755,133.799"/>
	<path clip-path="url(#SVGID_2_)" fill="none" stroke="#000000" stroke-width="1.413" stroke-miterlimit="10" d="M198.755,133.799
		c1.836,2.261,2.104,5.085,0.596,6.309c-1.506,1.223-4.216,0.385-6.053-1.877c-1.836-2.26,0.635-1.714,2.142-2.938
		C196.945,134.068,196.919,131.537,198.755,133.799z"/>
	<path clip-path="url(#SVGID_2_)" fill="#AA662B" d="M199.813,134.753c1.836,2.262,2.104,5.085,0.596,6.31
		c-1.506,1.223-4.216,0.385-6.053-1.877c-1.836-2.261,0.635-1.714,2.143-2.938C198.005,135.023,197.978,132.492,199.813,134.753"/>
	<path clip-path="url(#SVGID_2_)" fill="none" stroke="#000000" stroke-width="1.413" stroke-miterlimit="10" d="M199.813,134.753
		c1.836,2.262,2.104,5.085,0.596,6.31c-1.506,1.223-4.216,0.385-6.053-1.877c-1.836-2.261,0.635-1.714,2.143-2.938
		C198.005,135.023,197.978,132.492,199.813,134.753z"/>
</g>
</svg>
