<?xml version="1.0" encoding="utf-8"?>
<!-- Generator: Adobe Illustrator 15.1.0, SVG Export Plug-In . SVG Version: 6.00 Build 0)  -->
<!DOCTYPE svg PUBLIC "-//W3C//DTD SVG 1.1//EN" "http://www.w3.org/Graphics/SVG/1.1/DTD/svg11.dtd">
<svg version="1.1" id="Capa_1" xmlns="http://www.w3.org/2000/svg" xmlns:xlink="http://www.w3.org/1999/xlink" x="0px" y="0px"
	 width="155.906px" height="198.425px" viewBox="0 0 155.906 198.425" enable-background="new 0 0 155.906 198.425"
	 xml:space="preserve">
<g>
	<defs>
		<rect id="SVGID_1_" x="0.708" y="0.709" width="149.542" height="193.766"/>
	</defs>
	<clipPath id="SVGID_2_">
		<use xlink:href="#SVGID_1_"  overflow="visible"/>
	</clipPath>
	<path clip-path="url(#SVGID_2_)" fill="#FF0000" d="M104.113,28.092C103.511,13.038,91.056,3.509,79.79,4.055
		c-20.262,1.667-33.417,32.202-15.499,48.18C82.457,68.423,104.888,47.505,104.113,28.092 M60.905,21.837
		c0.173,11.209,3.311,19.944,11.582,32.246C58.828,47.876,56.323,33.164,60.905,21.837 M80.491,55.397
		c-1.743,0.112-3.162,0.013-4.899-0.347c-0.526-5.215-0.86-11.73,1.767-23.089c4.775,12.363,10.032,21.427,10.069,21.477
		C86.536,53.865,83.812,55.161,80.491,55.397 M80.564,17.205c2.227-0.328,4.755-0.7,3.459-2.133
		c-0.167-0.18-11.916,0.986-12.027,1.005c-0.905,0.155-1.06,1.215-1.067,1.227c-0.093,0.837,0.062,0.825,2.604,0.676
		c0.676,3.615,0.979,5.264,2.641,10.546c-1.203,4.985-2.443,10.137-2.61,18.11c-5.357-10.658-7.502-18.061-7.905-27.317
		c0.757-0.459,1.773-0.279,2.443-0.967c0.459-0.472,0.682-1.525,0.111-1.65c-2.027-0.44-3.571,0.999-5.387,1.377
		c6.162-9.492,17.957-17.211,30.895-7.732c-0.088-0.005-8.296,0.373-2.332,9.201c3.225,4.769,3.436,8.594,0.881,16.374
		c-0.918,3.838-1.196,4.998-2.021,8.948C86.312,35.457,83.101,27.447,80.564,17.205 M90.975,51.317
		c2.164-9.337,5.767-18.265,7.886-27.615c0.409-1.81,0.763-4.625,0.124-7.762C105.297,25.805,104.572,41.119,90.975,51.317"/>
	<path clip-path="url(#SVGID_2_)" fill="none" stroke="#000000" stroke-width="1.24" stroke-miterlimit="10" d="M104.113,28.092
		C103.511,13.038,91.056,3.509,79.79,4.055c-20.262,1.667-33.417,32.202-15.499,48.18C82.457,68.423,104.888,47.505,104.113,28.092z
		 M60.905,21.837c0.173,11.209,3.311,19.944,11.582,32.246C58.828,47.876,56.323,33.164,60.905,21.837z M80.491,55.397
		c-1.743,0.112-3.162,0.013-4.899-0.347c-0.526-5.215-0.86-11.73,1.767-23.089c4.775,12.363,10.032,21.427,10.069,21.477
		C86.536,53.865,83.812,55.161,80.491,55.397z M80.564,17.205c2.227-0.328,4.755-0.7,3.459-2.133
		c-0.167-0.18-11.916,0.986-12.027,1.005c-0.905,0.155-1.06,1.215-1.067,1.227c-0.093,0.837,0.062,0.825,2.604,0.676
		c0.676,3.615,0.979,5.264,2.641,10.546c-1.203,4.985-2.443,10.137-2.61,18.11c-5.357-10.658-7.502-18.061-7.905-27.317
		c0.757-0.459,1.773-0.279,2.443-0.967c0.459-0.472,0.682-1.525,0.111-1.65c-2.027-0.44-3.571,0.999-5.387,1.377
		c6.162-9.492,17.957-17.211,30.895-7.732c-0.088-0.005-8.296,0.373-2.332,9.201c3.225,4.769,3.436,8.594,0.881,16.374
		c-0.918,3.838-1.196,4.998-2.021,8.948C86.312,35.457,83.101,27.447,80.564,17.205z M90.975,51.317
		c2.164-9.337,5.767-18.265,7.886-27.615c0.409-1.81,0.763-4.625,0.124-7.762C105.297,25.805,104.572,41.119,90.975,51.317z"/>
	<path clip-path="url(#SVGID_2_)" d="M-83.542,156.151c-0.447,0-0.893,0.088-1.321,0.267c-1.203,0.496-2.021,1.624-2.126,2.921
		c-0.223,2.883-0.875,2.883-2.288,2.883c-2.4,0-4.111-0.985-5.388-3.101c-0.676-1.115-1.921-1.76-3.218-1.661
		c-0.694,0.051-1.413,0.074-2.145,0.074c-3.36,0-8.637-0.545-14.713-3.155c-1.692-0.726-3.658,0.007-4.47,1.661
		c-0.062,0.13-0.118,0.267-0.167,0.403c-0.558-1.389-1.029-2.784-1.395-4.192c-0.211-0.799-0.701-1.5-1.388-1.971
		c-16.394-11.29-15.606-48.775-9.716-65.422c1.246-3.522,2.808-6.802,4.65-9.747c0.812-1.301,0.669-2.982-0.354-4.129
		c-1.023-1.141-2.672-1.481-4.06-0.824c-2.754,1.302-5.314,1.965-7.614,1.965c-1.079,0-2.115-0.149-3.088-0.44
		c-4.346-1.302-6.938-3.646-8.271-5.45c0.688-0.006,1.519-0.012,2.511-0.012c1.68,0,3.597,0.012,5.63,0.018
		c2.319,0.012,4.792,0.025,7.267,0.025c4.407,0,10.75-0.037,14.929-0.335c0.676-0.049,1.321-0.298,1.86-0.706
		c5.332-4.105,11.551-6.287,18.482-6.498c0.515-0.019,1.024-0.025,1.531-0.025c14.453,0,27.107,6.399,33.865,17.112
		c0.136,0.217,0.297,0.422,0.483,0.602c0.869,0.874,1.984,1.804,3.206,2.709c-0.955,0.527-1.637,1.494-1.767,2.629
		c-0.186,1.643-1.24,2.275-1.358,2.343c-1.55,0.868-2.195,2.766-1.487,4.396c0.7,1.606,2.48,2.43,4.147,1.941
		c0,0,0.006,0,0.006,0.006c1.197,0.998,2.895,1.066,4.16,0.205c0.713,0.186,2.108,0.967,3.032,2.108
		c0.527,0.657,0.663,1.153,0.632,1.333c-0.036,0.21-0.099,0.334-0.136,0.378c-1.066,1.165-1.209,2.908-0.347,4.228
		c3.968,6.063,6.063,13.106,6.063,20.367c0,4.012-0.644,7.984-1.915,11.799c-0.534,1.58,0.142,3.315,1.605,4.123
		c1.458,0.806,3.286,0.452,4.347-0.838c0.582-0.712,0.905-0.985,1.016-1.072c1.116-0.862,2.276-1.314,3.342-1.314
		c0.949,0,1.773,0.371,2.325,1.048c0.719,0.881,0.936,2.208,0.62,3.744c-1.017,4.924-10.49,15.135-16.374,16.549
		c-0.285,0.067-0.502,0.105-0.663,0.117c-0.074-0.731,0.124-2.113,0.54-3.051c0.228-0.533,0.545-1.208,0.917-1.977
		c0.75-1.544-11.121,5.733-12.541,4.772c-1.413-0.968-8.484,2.673-18.044,3.293C-82.99,156.189-83.269,156.151-83.542,156.151
		 M-54.179,170.418c1.11,0,2.598,0.316,2.685,3.058c0.031,0.923-0.701,2.689-2.84,4.896c-4.278,4.421-13.088,9.184-22.32,9.184
		c-1.959,0-3.869-0.219-5.679-0.646c-14.496-3.435-28.111-13.899-34.9-26.021l0.317,0.167c7.811,13.534,23.969,23.628,38.005,23.628
		c7.49,0,13.417-3.025,16.684-8.525C-59.864,172.191-56.485,170.418-54.179,170.418 M-76.654,194.475
		c11.303,0,21.855-5.673,27.292-11.29c3.231-3.336,4.886-6.771,4.787-9.934c-0.192-5.828-4.049-9.752-9.604-9.752
		c-5.282,0-10.645,3.497-13.993,9.126c-2.53,4.253-7.236,5.146-10.739,5.146c-8.308,0-19.598-5.047-27.41-13.814
		c2.443,0.373,4.576,0.497,6.293,0.497c0.223,0,0.453-0.007,0.676-0.007c2.505,3.038,6.014,4.694,10.075,4.694
		c2.691,0,7.006-0.875,8.618-6.126c7.421-0.75,14.428-3.335,20.485-7.515c0.192,0.625,0.465,1.24,0.837,1.816
		c1.19,1.817,3.155,2.821,5.53,2.821c0.769,0,1.606-0.105,2.48-0.316c8.878-2.133,20.014-14.526,21.539-21.88
		c0.744-3.608,0.025-6.987-2.033-9.511c-1.86-2.287-4.663-3.596-7.689-3.596c-0.626,0-1.258,0.056-1.878,0.16
		c0.267-1.965,0.396-3.949,0.396-5.938c0-7.899-2.089-15.581-6.063-22.345c0.155-0.427,0.279-0.88,0.372-1.357
		c0.441-2.356-0.328-4.874-2.164-7.087c-0.279-0.335-0.577-0.657-0.893-0.961c2.71-0.893,3.925-2.815,4.118-4.526
		c0.26-2.368-1.303-4.483-3.714-5.016c-1.433-0.322-6.746-3.304-9.574-5.995c-8.363-12.959-23.801-20.491-41.236-19.958
		c-8.047,0.242-15.314,2.691-21.625,7.279c-3.944,0.229-9.48,0.254-13.435,0.254c-2.462,0-4.924-0.012-7.236-0.025
		c-2.046-0.006-3.968-0.019-5.661-0.019c-5.238,0-6.541,0.1-7.341,0.298c-1.902,0.477-3.167,2.164-3.217,4.303
		c-0.093,4.042,4.395,11.42,14.335,14.403c1.611,0.483,3.316,0.731,5.071,0.731c0.75,0,1.512-0.043,2.281-0.136
		c-0.508,1.19-0.986,2.405-1.426,3.651c-6.33,17.906-7.849,58.057,11.272,72.665c5.22,17.646,23.169,33.679,43.201,38.421
		C-81.602,194.189-79.152,194.475-76.654,194.475"/>
	<path clip-path="url(#SVGID_2_)" d="M-83.375,160.901h0.05c22.444-0.98,40.033-19.356,40.033-41.845
		c0-13.299-6.107-25.513-16.752-33.511c-0.508-0.378-1.234-0.279-1.619,0.23c-0.378,0.508-1.766,4.083-1.257,4.461
		c10.062,7.558,17.322,16.253,17.322,28.82c0,21.248-16.616,38.614-37.833,39.538c-0.632,0.031-1.128,0.564-1.097,1.202
		C-84.502,160.417-83.995,160.901-83.375,160.901"/>
	<path clip-path="url(#SVGID_2_)" fill="#FFD300" d="M-58.832,127.204c6.256-4.812,13.317-0.515,11.787,6.919
		c-1.266,6.102-11.582,17.441-18.96,19.208c-6.404,1.537-5.109-5.37-4.099-7.682c0.562-1.284,1.551-3.324,2.748-5.598
		c0.687-1.305,1.442-2.687,2.223-4.048c1.033-1.8,2.112-3.562,3.141-5.06C-60.828,129.249-59.728,127.894-58.832,127.204"/>
	<path clip-path="url(#SVGID_2_)" fill="#FFFFFF" d="M-65.088,89.373c0,12.869-16.136,23.301-36.041,23.301
		c-19.905,0-36.041-10.432-36.041-23.301s16.136-23.301,36.041-23.301C-81.224,66.072-65.088,76.504-65.088,89.373"/>
	<path clip-path="url(#SVGID_2_)" fill="#AA662B" d="M-92.17,100.627c0.745-3.437,2.316-6.556,4.757-9.059
		c8.461-8.674,24.124-6.682,34.981,4.446c10.858,11.129,12.8,27.182,4.338,35.855c-2.442,2.504-5.485,4.113-8.838,4.877
		c-0.057,5.898-1.991,11.356-5.931,15.396c-9.54,9.775-27.195,7.532-39.437-5.014c-12.24-12.547-14.429-30.645-4.89-40.423
		C-103.25,102.667-97.925,100.686-92.17,100.627"/>
	<path clip-path="url(#SVGID_2_)" fill="none" stroke="#000000" stroke-width="2.48" stroke-miterlimit="10" d="M-92.17,100.627
		c0.745-3.437,2.316-6.556,4.757-9.059c8.461-8.674,24.124-6.682,34.981,4.446c10.858,11.129,12.8,27.182,4.338,35.855
		c-2.442,2.504-5.485,4.113-8.838,4.877c-0.057,5.898-1.991,11.356-5.931,15.396c-9.54,9.775-27.195,7.532-39.437-5.014
		c-12.24-12.547-14.429-30.645-4.89-40.423C-103.25,102.667-97.925,100.686-92.17,100.627z"/>
	<path clip-path="url(#SVGID_2_)" fill="#00709F" d="M-58.748,116.275c0,8.333-6.755,15.088-15.087,15.088
		c-8.333,0-15.087-6.755-15.087-15.088c0-8.332,6.754-15.087,15.087-15.087C-65.503,101.188-58.748,107.943-58.748,116.275"/>
	
		<circle clip-path="url(#SVGID_2_)" fill="none" stroke="#000000" stroke-width="1.24" stroke-miterlimit="10" cx="-73.835" cy="116.275" r="15.087"/>
	<path clip-path="url(#SVGID_2_)" d="M-53.23,85.509c2.61,0,3.912-0.787,4.538-1.42c0.682-0.694,0.943-1.606,0.701-2.436
		c-0.242-0.825-0.93-1.433-1.842-1.637c-1.989-0.44-7.935-3.832-10.961-6.864c-0.453-0.446-1.184-0.446-1.631,0
		c-0.452,0.453-0.452,1.185,0,1.631c3.175,3.174,9.505,6.907,12.09,7.483c0.106,0.025,0.142,0.062,0.142,0.062
		c-0.011-0.006-0.079,0.124-0.334,0.298c-0.477,0.322-2.467,1.259-7.954-0.285c-0.614-0.174-1.253,0.18-1.427,0.793
		c-0.173,0.614,0.187,1.253,0.801,1.426C-56.64,85.249-54.724,85.509-53.23,85.509"/>
	<path clip-path="url(#SVGID_2_)" fill="#FFFFFF" d="M-65.768,106.183c-8.421-6.51-22.836,1.456-20.49,13.745
		c2.225,11.651,16.958,10.46,22.529,2.8C-59.409,116.789-61.292,109.379-65.768,106.183 M-77.124,105.925
		c5.227-1.769,12.07-1.157,14.155,6.379c-0.032-0.028-3.286-2.364-3.673,2.815c-0.208,2.798-1.283,4.324-4.612,6.529
		c-1.511,1.19-1.968,1.551-3.477,2.812c1.339-4.79,2.531-8.824,4.657-13.509c0.951,0.547,2.031,1.169,1.967,0.229
		c-0.009-0.119-4.856-3.224-4.903-3.25c-0.394-0.214-0.773,0.145-0.78,0.147c-0.288,0.292-0.225,0.334,0.792,1.045
		c-0.834,1.587-1.216,2.31-2.177,4.833c-1.967,1.542-3.999,3.139-6.472,6.138c1.172-5.696,2.589-9.176,5.232-12.838
		c0.429,0.053,0.764,0.429,1.227,0.368c0.318-0.041,0.722-0.377,0.542-0.598C-75.289,106.245-76.313,106.328-77.124,105.925
		 M-76.402,127.145c3.65-2.917,7.726-5.244,11.362-8.179c0.704-0.569,1.69-1.539,2.394-2.932
		C-63.214,121.715-68.119,127.354-76.402,127.145 M-84.31,122.616c-3.348-6.503,0.14-12.888,5.315-15.835
		C-82.316,111.121-83.755,115.41-84.31,122.616 M-81.645,125.537c-0.701-0.484-1.214-0.951-1.769-1.613
		c1.375-2.154,3.215-4.748,7.654-8.298c-1.91,6.172-2.639,11.229-2.639,11.258C-78.87,126.778-80.303,126.451-81.645,125.537"/>
	<path clip-path="url(#SVGID_2_)" fill="#FF8900" d="M-58.791,83.445c9.988,2.821,11.011-1.792,8.704-2.3
		c-2.299-0.515-8.45-4.105-11.526-7.174L-58.791,83.445z"/>
	<path clip-path="url(#SVGID_2_)" fill="#FF8900" d="M-124.121,153.126c4.358,16.653,21.52,32.538,40.988,37.15
		c16.753,3.963,35.353-8.965,35.098-16.907c-0.291-8.947-11.525-8.457-17.161,1.023c-8.637,14.52-38.174,4.352-49.191-15.885
		L-124.121,153.126z"/>
	<path clip-path="url(#SVGID_2_)" fill="#00A2C1" d="M-60.738,86.47c0.112,0.081,0.223,0.174,0.335,0.26
		c-0.167-0.062-0.335-0.117-0.502-0.179C-60.851,86.52-60.794,86.501-60.738,86.47"/>
	<path clip-path="url(#SVGID_2_)" fill="#00A2C1" d="M-71.992,84.74c0.174,0,0.342-0.012,0.515-0.012
		c3.708,0,7.267,0.644,10.571,1.822C-65.122,88.646-68.792,87.041-71.992,84.74"/>
	<path clip-path="url(#SVGID_2_)" fill="#FFD300" d="M-97.219,160.876c-6.25,0.559-16.517-0.601-26.902-7.75
		c-18.736-12.901-16.907-52.768-11.017-69.421c5.897-16.654,18.191-27.925,35.098-28.44c16.908-0.508,31,6.919,38.428,18.706
		c5.009,7.948,1.283,12.294-1.023,13.317c-2.306,1.029-12.041-2.815-14.861-7.942c-6.66,4.098-14.087,2.306-20.492,0.26
		l-12.301,3.584c9.741-3.844,22.035-1.538,28.44,4.098c6.404,5.636,2.046,9.74-2.821,10.249c-4.867,0.514-14.341-3.844-21.775-2.307
		c-7.427,1.538-9.709,4.26-17.651,11.433c0,0-4.352,17.422,0,24.106c7.552-4.359,21.205,0.575,25.265,9.87l0.705,8.85l0.409,5.135
		L-97.219,160.876z"/>
	<path clip-path="url(#SVGID_2_)" d="M-124.226,131.848c0.112,0,0.217-0.018,0.328-0.049c0.608-0.181,0.955-0.825,0.775-1.434
		c-1.085-3.65-1.636-7.458-1.636-11.308c0-4.285,0.681-8.495,2.02-12.518c0.199-0.607-0.124-1.26-0.731-1.457
		c-0.601-0.205-1.259,0.124-1.457,0.725c-1.419,4.26-2.139,8.718-2.139,13.25c0,4.073,0.583,8.103,1.736,11.966
		C-125.181,131.525-124.723,131.848-124.226,131.848"/>
	<path clip-path="url(#SVGID_2_)" d="M-99.271,141.216c0.173,0,0.347-0.037,0.508-0.117c0.57-0.279,0.806-0.974,0.527-1.545
		c-3.093-6.311-8.928-10.341-15.996-11.06c-5.834-0.589-11.643,1.246-14.129,4.457c-0.392,0.509-0.298,1.233,0.204,1.619
		c0.508,0.39,1.233,0.297,1.618-0.205c1.996-2.579,7.062-4.08,12.078-3.577c3.677,0.378,10.41,2.139,14.155,9.783
		C-100.102,140.98-99.693,141.216-99.271,141.216"/>
	<path clip-path="url(#SVGID_2_)" d="M-99.99,162.147c1.153,0,2.12-0.057,2.871-0.123c0.631-0.058,1.103-0.614,1.047-1.247
		c-0.056-0.639-0.632-1.104-1.252-1.047c-4.042,0.352-14.682,0.34-26.145-7.554c-18.042-12.418-16.455-51.497-10.584-68.087
		c6.058-17.113,18.47-27.2,34.05-27.672c15.953-0.483,29.941,6.312,37.418,18.167c2.039,3.242,2.746,6.187,2.039,8.525
		c-0.514,1.698-1.705,2.746-2.561,3.125c-1.451,0.65-10.695-2.561-13.379-7.44c-0.155-0.28-0.409-0.478-0.713-0.559
		c-0.31-0.08-0.633-0.036-0.899,0.13c-6.305,3.882-13.398,2.109-19.542,0.144c-0.608-0.193-1.253,0.135-1.451,0.743
		c-0.192,0.608,0.143,1.259,0.75,1.451c6.777,2.17,13.925,3.664,20.466,0.192c3.634,5.054,12.865,8.711,15.705,7.446
		c1.364-0.607,3.087-2.12,3.832-4.562c0.632-2.09,0.75-5.593-2.301-10.423c-7.917-12.555-22.654-19.753-39.438-19.239
		c-16.579,0.502-29.76,11.142-36.146,29.202c-2.765,7.806-5.003,22.147-3.795,36.599c0.968,11.457,4.39,26.691,15.24,34.162
		C-114.814,160.939-105.396,162.147-99.99,162.147"/>
	<path clip-path="url(#SVGID_2_)" fill="#FF8900" d="M-120.023,62.438c4.607-0.372,1.029,3.075-0.508,4.359
		c-1.538,1.277-12.555,11.271-22.804,8.196c-10.249-3.075-13.324-11.526-11.271-12.04
		C-152.554,62.438-129.503,63.208-120.023,62.438"/>
	<path clip-path="url(#SVGID_2_)" d="M-119.055,63.58c-0.304,0.49-1.036,1.351-2.214,2.331l-0.297,0.248
		c-8.011,6.832-14.037,8.265-17.689,8.265c-1.302,0-2.561-0.18-3.751-0.534c-5.623-1.686-9.077-5.177-10.435-7.874
		c-0.508-1.01-0.613-1.674-0.613-1.984c0.768-0.08,2.759-0.117,5.933-0.117c1.693,0,3.615,0.012,5.661,0.018
		c2.325,0.013,4.811,0.025,7.291,0.025c4.588,0,11.166-0.037,15.239-0.366C-119.57,63.561-119.26,63.561-119.055,63.58
		 M-139.255,76.73L-139.255,76.73c4.036,0,10.639-1.531,19.182-8.816l0.28-0.23c3.775-3.149,3.255-4.588,3.081-5.059
		c-0.322-0.905-1.227-1.364-2.666-1.364c-0.223,0-0.465,0.012-0.738,0.031c-3.992,0.322-10.502,0.36-15.053,0.36
		c-2.474,0-4.954-0.013-7.279-0.019c-2.052-0.012-3.98-0.025-5.673-0.025c-4.879,0-6.207,0.087-6.764,0.23
		c-0.893,0.223-1.445,1.016-1.47,2.114c-0.068,2.796,3.696,9.449,12.692,12.146C-142.262,76.519-140.78,76.73-139.255,76.73"/>
	<path clip-path="url(#SVGID_2_)" d="M-75.445,72.688c1.835,1.376,1.277,3.075-0.769,3.329c-2.052,0.261-2.207,0.391-4.099-1.023
		c-2.051-1.537-2.305-4.098,0-3.844C-78.006,71.411-76.467,71.918-75.445,72.688"/>
	<path clip-path="url(#SVGID_2_)" d="M-70.062,73.71c0,1.277,1.029,2.306,2.3,2.306c1.277,0,2.307-1.029,2.307-2.306
		c0-1.271-1.03-2.3-2.307-2.3C-69.034,71.411-70.062,72.439-70.062,73.71"/>
	<path clip-path="url(#SVGID_2_)" d="M-96.71,67.306c0,1.277,1.035,2.306,2.306,2.306c1.277,0,2.306-1.029,2.306-2.306
		c0-1.271-1.029-2.3-2.306-2.3C-95.676,65.006-96.71,66.035-96.71,67.306"/>
	<path clip-path="url(#SVGID_2_)" d="M-76.734,192.155c8.965,0,17.762-3.838,23.337-8.401c4.24-3.466,6.615-7.267,6.515-10.428
		c-0.123-3.789-2.033-6.441-5.244-7.267c-4.074-1.055-10.218,1.271-14.061,7.744c-3.17,5.325-8.929,6.36-13.175,6.268
		c-12.661-0.242-27.281-9.746-34.008-22.115c-0.31-0.558-1.01-0.763-1.568-0.459c-0.558,0.305-0.763,1.004-0.459,1.562
		c7.093,13.039,22.568,23.063,35.991,23.317c6.92,0.112,12.282-2.498,15.196-7.396c3.267-5.499,8.265-7.527,11.514-6.69
		c2.176,0.559,3.422,2.375,3.509,5.109c0.08,2.406-2.04,5.604-5.667,8.575c-6.522,5.332-17.714,9.615-28.012,7.179
		c-18.928-4.482-35.811-19.759-40.139-36.319c-0.161-0.613-0.787-0.985-1.407-0.824c-0.614,0.16-0.986,0.794-0.824,1.406
		c4.532,17.343,22.127,33.313,41.837,37.982C-81.198,191.919-78.96,192.155-76.734,192.155"/>
	<path clip-path="url(#SVGID_2_)" d="M-126.681,109.708c0.272,0,0.552-0.1,0.775-0.298l0.911-0.824
		c7.452-6.74,11.954-10.813,18.786-12.227c4.11-0.849,9.015,0.242,13.342,1.197c3.287,0.732,6.113,1.364,8.321,1.128
		c3.385-0.353,6.07-2.139,6.832-4.538c0.54-1.693,0.391-4.408-3.373-7.719c-7.037-6.194-20.051-8.085-29.623-4.309
		c-0.595,0.236-0.88,0.905-0.651,1.494c0.236,0.595,0.905,0.887,1.501,0.651c8.835-3.49,20.806-1.779,27.249,3.894
		c2.207,1.94,3.167,3.819,2.702,5.288c-0.483,1.507-2.442,2.691-4.879,2.945c-1.835,0.193-4.625-0.427-7.576-1.085
		c-4.557-1.01-9.722-2.157-14.316-1.202c-7.446,1.543-12.388,6.007-19.865,12.772l-0.911,0.823
		c-0.472,0.423-0.508,1.153-0.081,1.625C-127.308,109.578-126.998,109.708-126.681,109.708"/>
	<path clip-path="url(#SVGID_2_)" fill="#FFD300" d="M-44.959,130.329c6.256-4.812,13.317-0.515,11.787,6.919
		c-1.266,6.101-11.582,17.441-18.96,19.208c-6.404,1.537-5.109-5.37-4.099-7.682c0.562-1.284,1.551-3.324,2.748-5.598
		c0.687-1.305,1.442-2.687,2.223-4.048c1.033-1.8,2.112-3.562,3.141-5.06C-46.956,132.374-45.855,131.019-44.959,130.329"/>
	<path clip-path="url(#SVGID_2_)" d="M-39.509,129.449c1.655,0,3.118,0.676,4.117,1.896c1.158,1.426,1.55,3.441,1.091,5.666
		c-1.178,5.681-11.266,16.686-18.098,18.328c-0.528,0.124-0.999,0.187-1.408,0.187c-1.066,0-1.463-0.416-1.667-0.731
		c-0.837-1.271-0.36-4.05,0.297-5.556c1.891-4.328,7.893-15.661,10.918-17.999C-42.734,130.069-41.09,129.449-39.509,129.449
		 M-53.807,157.832L-53.807,157.832c0.59,0,1.247-0.087,1.941-0.254c7.8-1.873,18.469-13.578,19.822-20.102
		c0.6-2.913,0.042-5.61-1.563-7.588c-1.426-1.743-3.572-2.747-5.902-2.747c-2.096,0-4.223,0.788-6.157,2.275
		c-3.794,2.921-10.23,15.718-11.625,18.892c-0.576,1.321-1.723,5.288-0.118,7.75C-56.875,156.865-55.822,157.832-53.807,157.832"/>
	<path clip-path="url(#SVGID_2_)" fill="#FFD300" d="M-99.271,156.716c0,0,1.537,8.965,9.994,8.965c8.45,0,4.867-10.248,5.89-16.906
		c1.023-6.659,5.122-15.37-1.023-19.469c-6.15-4.098-13.578,7.943-14.861,12.55C-101.063,148.005-100.809,151.849-99.271,156.716"/>
	
		<rect x="-47.144" y="54.067" transform="matrix(0.7071 0.7071 -0.7071 0.7071 47.198 54.4486)" clip-path="url(#SVGID_2_)" width="10.043" height="60.255"/>
	
		<rect x="-47.144" y="54.067" transform="matrix(0.7071 0.7071 -0.7071 0.7071 47.198 54.4486)" clip-path="url(#SVGID_2_)" fill="none" stroke="#000000" stroke-width="1.614" stroke-miterlimit="10" width="10.043" height="60.255"/>
	
		<line clip-path="url(#SVGID_2_)" fill="none" stroke="#FFFFFF" stroke-width="0.62" stroke-miterlimit="10" x1="-23.356" y1="60.355" x2="-65.963" y2="102.961"/>
	
		<line clip-path="url(#SVGID_2_)" fill="none" stroke="#FFFFFF" stroke-width="0.62" stroke-miterlimit="10" x1="-22.341" y1="61.37" x2="-64.948" y2="103.977"/>
	
		<line clip-path="url(#SVGID_2_)" fill="none" stroke="#FFFFFF" stroke-width="0.62" stroke-miterlimit="10" x1="-21.327" y1="62.384" x2="-63.934" y2="104.99"/>
	
		<line clip-path="url(#SVGID_2_)" fill="none" stroke="#FFFFFF" stroke-width="0.62" stroke-miterlimit="10" x1="-20.313" y1="63.398" x2="-62.92" y2="106.005"/>
	
		<line clip-path="url(#SVGID_2_)" fill="none" stroke="#FFFFFF" stroke-width="0.62" stroke-miterlimit="10" x1="-18.284" y1="65.427" x2="-60.891" y2="108.033"/>
	
		<line clip-path="url(#SVGID_2_)" fill="none" stroke="#FFFFFF" stroke-width="0.62" stroke-miterlimit="10" x1="-19.298" y1="64.413" x2="-61.905" y2="107.019"/>
	<path clip-path="url(#SVGID_2_)" d="M-87.083,130c0.639,0,1.234,0.192,1.817,0.583c3.634,2.418,2.901,6.802,1.364,13.206
		c-0.378,1.581-0.768,3.217-1.004,4.749c-0.31,1.991-0.236,4.216-0.162,6.362c0.112,3.341,0.223,6.789-1.214,8.275
		c-0.627,0.651-1.613,0.969-2.995,0.969c-7.031,0-8.426-7.379-8.482-7.694c-0.012-0.063-0.025-0.131-0.043-0.199
		c-1.37-4.34-1.779-7.85,0.006-13.962C-96.655,138.178-91.224,130-87.083,130 M-89.276,167.219c2.232,0,3.987-0.639,5.207-1.902
		c2.345-2.426,2.208-6.541,2.078-10.517c-0.068-2.009-0.137-4.085,0.123-5.797c0.218-1.4,0.577-2.907,0.956-4.501
		c1.425-5.946,3.038-12.686-2.648-16.479c-1.091-0.726-2.275-1.092-3.522-1.092c-6.677,0-12.561,10.516-13.671,14.516
		c-1.971,6.77-1.506,10.874-0.012,15.635C-100.115,160.653-96.915,167.219-89.276,167.219"/>
	<path clip-path="url(#SVGID_2_)" fill="#FFD300" d="M-52.07,85.123c2.56-1.023,8.965,3.329,8.196,7.434
		c-0.763,4.098-5.376,4.098-8.45,1.023C-55.399,90.504-54.55,86.115-52.07,85.123"/>
	<path clip-path="url(#SVGID_2_)" d="M-51.189,86.748c1.24,0,3.509,1.116,5.01,2.92c0.544,0.663,1.425,1.965,1.177,3.292
		c-0.353,1.885-1.599,2.276-2.585,2.276c-1.296,0-2.759-0.689-3.925-1.854c-1.289-1.296-1.873-3.001-1.55-4.57
		c0.198-0.973,0.732-1.723,1.42-1.996C-51.525,86.772-51.37,86.748-51.189,86.748 M-47.587,97.542L-47.587,97.542
		c2.511,0,4.371-1.593,4.848-4.154c0.317-1.674-0.279-3.515-1.674-5.189c-1.804-2.177-4.656-3.758-6.776-3.758
		c-0.478,0-0.918,0.081-1.308,0.236c-1.414,0.564-2.468,1.934-2.821,3.67c-0.484,2.332,0.334,4.824,2.176,6.665
		C-51.53,96.617-49.51,97.542-47.587,97.542"/>
	<polygon clip-path="url(#SVGID_2_)" points="-119.721,52.328 -89.312,43.609 -94.314,29.686 -122.695,37.824 	"/>
	<polygon clip-path="url(#SVGID_2_)" fill="none" stroke="#000000" stroke-width="1.116" stroke-miterlimit="10" points="
		-119.721,52.328 -89.312,43.609 -94.314,29.686 -122.695,37.824 	"/>
	<path clip-path="url(#SVGID_2_)" d="M-143.233,65.975c1.125,3.919,20.187,1.89,42.582-4.531
		c22.393-6.419,39.632-14.802,38.51-18.721c-1.126-3.92-20.187-1.888-42.58,4.53C-127.115,53.675-144.356,62.056-143.233,65.975"/>
	
		<ellipse transform="matrix(-0.9613 0.2756 -0.2756 -0.9613 -186.4161 134.8965)" clip-path="url(#SVGID_2_)" fill="none" stroke="#000000" stroke-width="1.116" stroke-miterlimit="10" cx="-102.687" cy="54.349" rx="42.18" ry="7.381"/>
	<polygon clip-path="url(#SVGID_2_)" fill="#FF0000" points="-119.721,52.328 -89.312,43.609 -90.687,39.782 -120.496,48.55 	"/>
	<polygon clip-path="url(#SVGID_2_)" fill="none" stroke="#000000" stroke-width="1.116" stroke-miterlimit="10" points="
		-119.721,52.328 -89.312,43.609 -90.687,39.782 -120.496,48.55 	"/>
	<path clip-path="url(#SVGID_2_)" d="M-135.284,140.516c0,0,11.398,17.532,21.915,17.44c3.851-0.033,9.596-20.594,10.71-21.936
		c0.632-0.761-11.577-7.228-11.399-8.133c0.173-0.875,3.133-17.038,3.34-17.846c0.214-0.838-12.955,1.415-12.702,0.649
		c3.951-11.944,12.78-15.324,30.553-13.136c1.632,0.201,3.765-14.057,2.708-14.44c-6.221-2.252-12.77-2.818-20.551-0.998
		c-0.623,0.146-24.979,1.785-25.282,2.339c-4.289,7.854-4.908,43.194-0.827,49.549
		C-136.634,134.294-135.284,140.516-135.284,140.516"/>
	<path clip-path="url(#SVGID_2_)" fill="none" stroke="#000000" stroke-width="1.24" stroke-miterlimit="10" d="M-135.284,140.516
		c0,0,11.398,17.532,21.915,17.44c3.851-0.033,9.596-20.594,10.71-21.936c0.632-0.761-11.577-7.228-11.399-8.133
		c0.173-0.875,3.133-17.038,3.34-17.846c0.214-0.838-12.955,1.415-12.702,0.649c3.951-11.944,12.78-15.324,30.553-13.136
		c1.632,0.201,3.765-14.057,2.708-14.44c-6.221-2.252-12.77-2.818-20.551-0.998c-0.623,0.146-24.979,1.785-25.282,2.339
		c-4.289,7.854-4.908,43.194-0.827,49.549C-136.634,134.294-135.284,140.516-135.284,140.516z"/>
	<path clip-path="url(#SVGID_2_)" d="M69.639,156.151c0.447,0,0.893,0.088,1.321,0.267c1.203,0.496,2.021,1.624,2.126,2.921
		c0.223,2.883,0.875,2.883,2.288,2.883c2.4,0,4.111-0.985,5.388-3.101c0.676-1.115,1.921-1.76,3.218-1.661
		c0.694,0.051,1.413,0.074,2.145,0.074c3.36,0,8.638-0.545,14.714-3.155c1.691-0.726,3.657,0.007,4.47,1.661
		c0.062,0.13,0.118,0.267,0.167,0.403c0.558-1.389,1.028-2.784,1.395-4.192c0.211-0.799,0.701-1.5,1.389-1.971
		c16.394-11.29,15.605-48.775,9.716-65.422c-1.246-3.522-2.809-6.802-4.65-9.747c-0.812-1.301-0.669-2.982,0.354-4.129
		c1.022-1.141,2.672-1.481,4.06-0.824c2.754,1.302,5.314,1.965,7.614,1.965c1.079,0,2.115-0.149,3.088-0.44
		c4.346-1.302,6.938-3.646,8.271-5.45c-0.688-0.006-1.519-0.012-2.511-0.012c-1.68,0-3.597,0.012-5.63,0.018
		c-2.319,0.012-4.792,0.025-7.267,0.025c-4.407,0-10.75-0.037-14.93-0.335c-0.676-0.049-1.32-0.298-1.859-0.706
		c-5.332-4.105-11.551-6.287-18.482-6.498c-0.515-0.019-1.023-0.025-1.531-0.025c-14.453,0-27.106,6.399-33.865,17.112
		c-0.136,0.217-0.297,0.422-0.483,0.602c-0.869,0.874-1.984,1.804-3.206,2.709c0.955,0.527,1.637,1.494,1.767,2.629
		c0.186,1.643,1.24,2.275,1.358,2.343c1.55,0.868,2.195,2.766,1.487,4.396c-0.7,1.606-2.48,2.43-4.147,1.941
		c0,0-0.006,0-0.006,0.006c-1.197,0.998-2.895,1.066-4.16,0.205c-0.713,0.186-2.108,0.967-3.032,2.108
		c-0.527,0.657-0.663,1.153-0.632,1.333c0.036,0.21,0.099,0.334,0.136,0.378c1.066,1.165,1.209,2.908,0.347,4.228
		c-3.968,6.063-6.063,13.106-6.063,20.367c0,20.771,8.188,30.62,1.915,11.799c-0.533-1.581-0.142,3.315-1.605,4.123
		c-1.458,0.806-3.286,0.452-4.347-0.838c-0.582-0.712-0.905-0.985-1.016-1.072c-1.116-0.862-2.276-1.314-3.342-1.314
		c-0.949,0-1.773,0.371-2.325,1.048c-0.719,0.881-0.936,2.208-0.62,3.744c1.017,4.924,10.49,15.135,16.374,16.549
		c0.285,0.067,0.502,0.105,0.663,0.117c0.074-0.731-0.124-2.113-0.54-3.051c-0.228-0.533-0.545-1.208-0.917-1.977
		c-0.75-1.544-0.254-3.404,1.166-4.365c1.414-0.968,3.323-0.75,4.489,0.508c6.547,7.087,15.37,11.303,24.93,11.923
		C69.087,156.189,69.366,156.151,69.639,156.151 M40.276,170.418c-1.11,0-2.598,0.316-2.685,3.058
		c-0.031,0.923,0.701,2.689,2.84,4.896c4.278,4.421,13.088,9.184,22.32,9.184c1.959,0,3.869-0.219,5.679-0.646
		c14.497-3.435,28.111-13.899,34.9-26.021l-0.316,0.167c-7.812,13.534-23.97,23.628-38.005,23.628
		c-7.49,0-13.417-3.025-16.684-8.525C45.961,172.191,42.583,170.418,40.276,170.418 M62.751,194.475
		c-11.303,0-21.855-5.673-27.292-11.29c-3.231-3.336-4.886-6.771-4.787-9.934c0.192-5.828,4.049-9.752,9.604-9.752
		c5.282,0,10.645,3.497,13.993,9.126c2.53,4.253,7.236,5.146,10.739,5.146c8.308,0,19.598-5.047,27.41-13.814
		c-2.442,0.373-4.575,0.497-6.293,0.497c-0.223,0-0.452-0.007-0.676-0.007c-2.505,3.038-6.014,4.694-10.075,4.694
		c-2.691,0-7.006-0.875-8.618-6.126c-7.421-0.75-14.428-3.335-20.485-7.515c-0.192,0.625-0.465,1.24-0.837,1.816
		c-1.19,1.817-3.155,2.821-5.53,2.821c-0.769,0-1.606-0.105-2.48-0.316c-8.878-2.133-20.014-14.526-21.539-21.88
		c-0.744-3.608-0.025-6.987,2.033-9.511c1.86-2.287,4.663-3.596,7.689-3.596c0.626,0,1.258,0.056,1.878,0.16
		c-0.267-1.965-0.396-3.949-0.396-5.938c0-7.899,2.089-15.581,6.063-22.345c-0.155-0.427-0.279-0.88-0.372-1.357
		c-0.441-2.356,0.328-4.874,2.164-7.087c0.279-0.335,0.577-0.657,0.893-0.961c-2.71-0.893-3.925-2.815-4.118-4.526
		c-0.26-2.368,1.303-4.483,3.714-5.016c1.433-0.322,6.746-3.304,9.574-5.995c8.363-12.959,23.801-20.491,41.236-19.958
		c8.047,0.242,15.314,2.691,21.625,7.279c3.944,0.229,9.48,0.254,13.436,0.254c2.462,0,4.924-0.012,7.235-0.025
		c2.046-0.006,3.969-0.019,5.661-0.019c5.238,0,6.541,0.1,7.341,0.298c1.902,0.477,3.167,2.164,3.218,4.303
		c0.093,4.042-4.396,11.42-14.335,14.403c-1.611,0.483-3.316,0.731-5.071,0.731c-0.75,0-1.512-0.043-2.281-0.136
		c0.508,1.19,0.986,2.405,1.426,3.651c6.33,17.906,7.85,58.057-11.271,72.665c-5.22,17.646-23.169,33.679-43.201,38.421
		C67.699,194.189,65.25,194.475,62.751,194.475"/>
	<path clip-path="url(#SVGID_2_)" fill="#FFD300" d="M69.472,159.748c-21.657-0.942-38.93-18.799-38.93-40.69
		c0-13.324,6.398-25.154,16.294-32.587c7.019,3.639,12.536-3.038,16.895-6.232c12.48,3.194,32.582,1.339,46.202,25.935
		c2.065,3.731,2.077,8.382,2.077,12.884c0,4.042-0.589,7.948-1.686,11.637c-10.007-3.701-21.911,0.942-25.396,9.945
		C78.245,152.544,69.472,159.748,69.472,159.748"/>
	<path clip-path="url(#SVGID_2_)" fill="#FF8900" d="M44.889,83.445c-9.988,2.821-11.011-1.792-8.704-2.3
		c2.299-0.515,8.45-4.105,11.526-7.174L44.889,83.445z"/>
	<path clip-path="url(#SVGID_2_)" fill="#FF8900" d="M110.219,153.126c-4.358,16.653-21.521,32.538-40.988,37.15
		c-16.753,3.963-35.353-8.965-35.098-16.907c0.291-8.947,11.525-8.457,17.161,1.023c8.637,14.52,38.174,4.352,49.191-15.885
		L110.219,153.126z"/>
	<path clip-path="url(#SVGID_2_)" fill="#00A2C1" d="M46.836,86.47c-0.112,0.081-0.223,0.174-0.335,0.26
		c0.167-0.062,0.335-0.117,0.502-0.179C46.948,86.52,46.892,86.501,46.836,86.47"/>
	<path clip-path="url(#SVGID_2_)" fill="#00A2C1" d="M58.089,84.74c-0.174,0-0.342-0.012-0.515-0.012
		c-3.708,0-7.267,0.644-10.571,1.822C51.219,88.646,54.891,87.041,58.089,84.74"/>
	<path clip-path="url(#SVGID_2_)" fill="#FFD300" d="M48.733,87.289c-2.306-1.023-6.032-5.369-1.022-13.318
		c7.427-11.786,21.519-19.213,38.427-18.705c16.908,0.515,29.202,11.786,35.099,28.439c5.89,16.654,7.719,56.52-11.019,69.421
		c-10.385,7.148-20.651,8.309-26.9,7.75l1.611-20.236c4.062-9.294,17.713-14.229,25.266-9.87c4.352-6.685,0-24.106,0-24.106
		c-7.943-7.173-10.225-9.895-17.652-11.433c-7.434-1.537-18.269,9.37-31.441,6.782C47.93,99.424,46.97,92.569,46.97,92.569
		l-2.809-6.407L48.733,87.289z"/>
	<path clip-path="url(#SVGID_2_)" fill="none" stroke="#000000" stroke-width="1.86" stroke-miterlimit="10" d="M48.733,87.289
		c-2.306-1.023-6.032-5.369-1.022-13.318c7.427-11.786,21.519-19.213,38.427-18.705c16.908,0.515,29.202,11.786,35.099,28.439
		c5.89,16.654,7.719,56.52-11.019,69.421c-10.385,7.148-20.651,8.309-26.9,7.75l1.611-20.236c4.062-9.294,17.713-14.229,25.266-9.87
		c4.352-6.685,0-24.106,0-24.106c-7.943-7.173-10.225-9.895-17.652-11.433c-7.434-1.537-18.269,9.37-31.441,6.782
		C47.93,99.424,46.97,92.569,46.97,92.569l-2.809-6.407L48.733,87.289z"/>
	<path clip-path="url(#SVGID_2_)" d="M86.088,162.147c-1.153,0-2.12-0.057-2.871-0.123c-0.631-0.058-1.103-0.614-1.047-1.247
		c0.056-0.639,0.632-1.104,1.252-1.047c4.042,0.352,14.682,0.34,26.146-7.554c18.042-12.418,16.455-51.497,10.584-68.087
		c-6.059-17.113-18.471-27.2-34.051-27.672c-15.953-0.483-29.94,6.312-37.417,18.167c-2.039,3.242-2.746,6.187-2.039,8.525
		c0.514,1.698,1.705,2.746,2.561,3.125c1.451,0.65,10.695-2.561,13.379-7.44c0.155-0.28,0.409-0.478,0.713-0.559
		c0.31-0.08,0.633-0.036,0.899,0.13c6.305,3.882,13.398,2.109,19.542,0.144c0.607-0.193,1.253,0.135,1.451,0.743
		c0.191,0.608-0.144,1.259-0.75,1.451c-6.777,2.17-13.925,3.664-20.466,0.192c-3.634,5.054-12.865,8.711-15.705,7.446
		c-1.364-0.607-3.087-2.12-3.832-4.562c-0.632-2.09-0.75-5.593,2.301-10.423c7.917-12.555,22.654-19.753,39.438-19.239
		c16.579,0.502,29.76,11.142,36.146,29.202c2.765,7.806,5.003,22.147,3.795,36.599c-0.968,11.457-4.391,26.691-15.24,34.162
		C100.912,160.939,91.494,162.147,86.088,162.147"/>
	<path clip-path="url(#SVGID_2_)" fill="#FF8900" d="M106.12,62.438c-4.606-0.372-1.028,3.075,0.509,4.359
		c1.538,1.277,12.555,11.271,22.804,8.196c10.249-3.075,13.324-11.526,11.271-12.04C138.651,62.438,115.601,63.208,106.12,62.438"/>
	<path clip-path="url(#SVGID_2_)" d="M105.152,63.58c0.305,0.49,1.036,1.351,2.215,2.331l0.297,0.248
		c8.011,6.832,14.037,8.265,17.688,8.265c1.302,0,2.562-0.18,3.751-0.534c5.623-1.686,9.077-5.177,10.436-7.874
		c0.508-1.01,0.612-1.674,0.612-1.984c-0.768-0.08-2.759-0.117-5.933-0.117c-1.693,0-3.615,0.012-5.661,0.018
		c-2.325,0.013-4.811,0.025-7.291,0.025c-4.588,0-11.166-0.037-15.239-0.366C105.668,63.561,105.357,63.561,105.152,63.58
		 M125.353,76.73L125.353,76.73c-4.036,0-10.639-1.531-19.182-8.816l-0.28-0.23c-3.775-3.149-3.255-4.588-3.081-5.059
		c0.322-0.905,1.228-1.364,2.666-1.364c0.223,0,0.465,0.012,0.738,0.031c3.992,0.322,10.502,0.36,15.053,0.36
		c2.474,0,4.954-0.013,7.279-0.019c2.052-0.012,3.979-0.025,5.673-0.025c4.879,0,6.207,0.087,6.764,0.23
		c0.894,0.223,1.445,1.016,1.471,2.114c0.067,2.796-3.696,9.449-12.692,12.146C128.359,76.519,126.878,76.73,125.353,76.73"/>
	<path clip-path="url(#SVGID_2_)" d="M39.328,85.509c-2.61,0-3.912-0.787-4.538-1.42c-0.682-0.694-0.943-1.606-0.701-2.436
		c0.242-0.825,0.93-1.433,1.842-1.637c1.989-0.44,7.935-3.832,10.961-6.864c0.453-0.446,1.184-0.446,1.631,0
		c0.452,0.453,0.452,1.185,0,1.631c-3.175,3.174-9.505,6.907-12.09,7.483c-0.106,0.025-0.142,0.062-0.142,0.062
		c0.011-0.006,0.079,0.124,0.334,0.298c0.477,0.322,2.467,1.259,7.954-0.285c0.614-0.174,1.253,0.18,1.427,0.793
		c0.173,0.614-0.187,1.253-0.801,1.426C42.738,85.249,40.822,85.509,39.328,85.509"/>
	<path clip-path="url(#SVGID_2_)" d="M61.542,72.688c-1.835,1.376-1.277,3.075,0.769,3.329c2.052,0.261,2.207,0.391,4.099-1.023
		c2.051-1.537,2.305-4.098,0-3.844C64.104,71.411,62.564,71.918,61.542,72.688"/>
	<path clip-path="url(#SVGID_2_)" d="M56.16,73.71c0,1.277-1.029,2.306-2.3,2.306c-1.277,0-2.307-1.029-2.307-2.306
		c0-1.271,1.03-2.3,2.307-2.3C55.131,71.411,56.16,72.439,56.16,73.71"/>
	<path clip-path="url(#SVGID_2_)" d="M62.832,192.155c-8.965,0-17.762-3.838-23.337-8.401c-4.24-3.466-6.615-7.267-6.515-10.428
		c0.123-3.789,2.033-6.441,5.244-7.267c4.074-1.055,10.218,1.271,14.061,7.744c3.17,5.325,8.929,6.36,13.175,6.268
		c12.661-0.242,27.281-9.746,34.008-22.115c0.311-0.558,1.01-0.763,1.568-0.459c0.558,0.305,0.763,1.004,0.459,1.562
		c-7.093,13.039-22.568,23.063-35.991,23.317c-6.92,0.112-12.282-2.498-15.196-7.396c-3.267-5.499-8.265-7.527-11.514-6.69
		c-2.176,0.559-3.422,2.375-3.509,5.109c-0.08,2.406,2.04,5.604,5.667,8.575c6.522,5.332,17.714,9.615,28.012,7.179
		c18.928-4.482,35.812-19.759,40.139-36.319c0.161-0.613,0.787-0.985,1.407-0.824c0.614,0.16,0.986,0.794,0.824,1.406
		c-4.532,17.343-22.127,33.313-41.837,37.982C67.296,191.919,65.058,192.155,62.832,192.155"/>
	<path clip-path="url(#SVGID_2_)" d="M112.779,109.708c-0.272,0-0.553-0.1-0.775-0.298l-0.911-0.824
		c-7.452-6.74-11.954-10.813-18.786-12.227c-4.109-0.849-9.015,0.242-13.342,1.197c-3.287,0.732-6.113,1.364-8.321,1.128
		c-3.385-0.353-6.07-2.139-6.832-4.538c-0.54-1.693-0.391-4.408,3.373-7.719c7.037-6.194,20.051-8.085,29.623-4.309
		c0.596,0.236,0.88,0.905,0.651,1.494c-0.236,0.595-0.905,0.887-1.501,0.651c-8.835-3.49-20.806-1.779-27.249,3.894
		c-2.207,1.94-3.167,3.819-2.702,5.288c0.483,1.507,2.442,2.691,4.879,2.945c1.835,0.193,4.625-0.427,7.576-1.085
		c4.557-1.01,9.722-2.157,14.316-1.202c7.445,1.543,12.388,6.007,19.864,12.772l0.911,0.823c0.473,0.423,0.508,1.153,0.081,1.625
		C113.406,109.578,113.096,109.708,112.779,109.708"/>
	<path clip-path="url(#SVGID_2_)" fill="#FFD300" d="M31.057,130.329c-6.256-4.812-13.317-0.515-11.787,6.919
		c1.266,6.101,11.582,17.441,18.96,19.208c6.404,1.537,5.109-5.37,4.099-7.682C40.537,144.676,34.386,132.89,31.057,130.329"/>
	<path clip-path="url(#SVGID_2_)" d="M25.607,129.449c-1.655,0-3.118,0.676-4.117,1.896c-1.158,1.426-1.55,3.441-1.091,5.666
		c1.178,5.681,11.266,16.686,18.098,18.328c0.528,0.124,0.999,0.187,1.408,0.187c1.066,0,1.463-0.416,1.667-0.731
		c0.837-1.271,0.36-4.05-0.297-5.556c-1.891-4.328-7.893-15.661-10.918-17.999C28.832,130.069,27.188,129.449,25.607,129.449
		 M39.905,157.832L39.905,157.832c-0.59,0-1.247-0.087-1.941-0.254c-7.8-1.873-18.469-13.578-19.822-20.102
		c-0.6-2.913-0.042-5.61,1.563-7.588c1.426-1.743,3.572-2.747,5.902-2.747c2.096,0,4.223,0.788,6.157,2.275
		c3.794,2.921,10.23,15.718,11.625,18.892c0.576,1.321,1.723,5.288,0.118,7.75C42.973,156.865,41.92,157.832,39.905,157.832"/>
	<path clip-path="url(#SVGID_2_)" fill="#FFD300" d="M85.369,156.716c0,0-1.537,8.965-9.995,8.965c-8.45,0-4.867-10.248-5.89-16.906
		c-1.023-6.659-5.122-15.37,1.023-19.469c6.15-4.098,13.578,7.943,14.861,12.55C87.161,148.005,86.906,151.849,85.369,156.716"/>
	<path clip-path="url(#SVGID_2_)" d="M73.18,130c-0.639,0-1.234,0.192-1.817,0.583c-3.634,2.418-2.901,6.802-1.364,13.206
		c0.378,1.581,0.768,3.217,1.004,4.749c0.31,1.991,0.236,4.216,0.162,6.362c-0.112,3.341-0.223,6.789,1.214,8.275
		c0.627,0.651,1.613,0.969,2.995,0.969c7.031,0,8.426-7.379,8.482-7.694c0.012-0.063,0.024-0.131,0.043-0.199
		c1.37-4.34,1.779-7.85-0.006-13.962C82.752,138.178,77.321,130,73.18,130 M75.375,167.219c-2.232,0-3.987-0.639-5.207-1.902
		c-2.345-2.426-2.208-6.541-2.078-10.517c0.068-2.009,0.137-4.085-0.123-5.797c-0.218-1.4-0.577-2.907-0.956-4.501
		c-1.425-5.946-3.038-12.686,2.648-16.479c1.091-0.726,2.275-1.092,3.522-1.092c6.677,0,12.561,10.516,13.671,14.516
		c1.971,6.77,1.506,10.874,0.012,15.635C86.212,160.653,83.013,167.219,75.375,167.219"/>
	<path clip-path="url(#SVGID_2_)" d="M73.18,130c-0.639,0-1.234,0.192-1.817,0.583c-3.634,2.418-2.901,6.802-1.364,13.206
		c0.378,1.581,0.768,3.217,1.004,4.749c0.31,1.991,0.236,4.216,0.162,6.362c-0.112,3.341-0.223,6.789,1.214,8.275
		c0.627,0.651,1.613,0.969,2.995,0.969c7.031,0,8.426-7.379,8.482-7.694c0.012-0.063,0.024-0.131,0.043-0.199
		c1.37-4.34,1.779-7.85-0.006-13.962C82.752,138.178,77.321,130,73.18,130 M75.375,167.219c-2.232,0-3.987-0.639-5.207-1.902
		c-2.345-2.426-2.208-6.541-2.078-10.517c0.068-2.009,0.137-4.085-0.123-5.797c-0.218-1.4-0.577-2.907-0.956-4.501
		c-1.425-5.946-3.038-12.686,2.648-16.479c1.091-0.726,2.275-1.092,3.522-1.092c6.677,0,12.561,10.516,13.671,14.516
		c1.971,6.77,1.506,10.874,0.012,15.635C86.212,160.653,83.013,167.219,75.375,167.219"/>
	<path clip-path="url(#SVGID_2_)" fill="#FFD300" d="M44.38,87.289c-2.56-1.023-8.965,3.329-8.196,7.434
		c0.763,4.098,5.376,4.098,8.45,1.023C47.71,92.67,46.86,88.28,44.38,87.289"/>
	<path clip-path="url(#SVGID_2_)" d="M43.5,88.293c-1.24,0-3.509,1.116-5.01,2.92c-0.544,0.663-1.425,1.965-1.177,3.292
		c0.353,1.885,1.599,2.276,2.585,2.276c1.296,0,2.759-0.689,3.925-1.854c1.289-1.296,1.873-3.001,1.55-4.57
		c-0.198-0.973-0.732-1.723-1.42-1.996C43.836,88.318,43.681,88.293,43.5,88.293 M39.898,99.087L39.898,99.087
		c-2.511,0-4.371-1.593-4.848-4.154c-0.317-1.674,0.279-3.515,1.674-5.189c1.804-2.177,4.656-3.758,6.776-3.758
		c0.478,0,0.918,0.081,1.308,0.236c1.414,0.564,2.468,1.934,2.821,3.67c0.484,2.332-0.334,4.824-2.176,6.665
		C43.841,98.163,41.821,99.087,39.898,99.087"/>
	<path clip-path="url(#SVGID_2_)" fill="#FF0000" d="M28.964,111.93l-6.2,12.4c0,0-1.613,2.799-6.82,1.838
		c-5.209-0.961-6.319,6.294-3.714,6.776c2.603,0.48,7.642-2.828,9.647-2.147c2.008,0.681,4.228,4.795,6.615,5.234
		c2.388,0.44,3.866-1.412,5.82-1.052c1.953,0.36,3.739,5.214,7.046,6.136c3.31,0.921,4.255-1.096,5.83-1.116
		c1.574-0.021,2.632,7.641,8.763,8.46c6.131,0.821,6.46-4.614,9.065-4.133c2.606,0.479,5.152,6.135,7.755,6.614
		c2.606,0.48,5.284-4.312,8.615-4.111c3.328,0.199,7.04,9.915,11.562,10.328c4.524,0.41,3.15-4.301,7.06-4.203
		c3.91,0.1,3.673,6.85,9.431,7.263c5.76,0.414,2.34-5.403,6.698-4.704c4.358,0.701,6.782,6.521,9.358,5.254
		c12.82-6.302,6.354-9.438,4.295-10.797c-3.947-2.603-4.775-21.501-4.775-21.501"/>
	
		<path clip-path="url(#SVGID_2_)" fill="none" stroke="#000000" stroke-width="3.1" stroke-linecap="round" stroke-miterlimit="10" d="
		M28.964,111.93l-6.2,12.4c0,0-1.613,2.799-6.82,1.838c-5.209-0.961-6.319,6.294-3.714,6.776c2.603,0.48,7.642-2.828,9.647-2.147
		c2.008,0.681,4.228,4.795,6.615,5.234c2.388,0.44,3.866-1.412,5.82-1.052c1.953,0.36,3.739,5.214,7.046,6.136
		c3.31,0.921,4.255-1.096,5.83-1.116c1.574-0.021,2.632,7.641,8.763,8.46c6.131,0.821,6.46-4.614,9.065-4.133
		c2.606,0.479,5.152,6.135,7.755,6.614c2.606,0.48,5.284-4.312,8.615-4.111c3.328,0.199,7.04,9.915,11.562,10.328
		c4.524,0.41,3.15-4.301,7.06-4.203c3.91,0.1,3.673,6.85,9.431,7.263c5.76,0.414,2.34-5.403,6.698-4.704
		c4.358,0.701,6.782,6.521,9.358,5.254c12.82-6.302,6.354-9.438,4.295-10.797c-3.947-2.603-4.775-21.501-4.775-21.501"/>
	<path clip-path="url(#SVGID_2_)" fill="#FF0000" d="M125.636,128.891c0,0-1.032,7.316,2.916,9.92
		c2.058,1.357,9.145,5.735-3.676,12.037c-2.576,1.266-3.14-7.034-7.498-7.735c-4.358-0.699-0.938,3.258-6.698,2.844
		c-5.758-0.412-5.521-7.161-9.432-7.263c-3.908-0.098-2.534,4.614-7.059,4.203c-4.523-0.412-8.235-9.508-11.562-9.708
		c-3.331-0.2-4.149,5.213-6.755,4.732c-2.603-0.48-4.391-3.745-6.995-4.226c-2.605-0.48,10.648,1.978,4.517,1.155
		c-6.131-0.82-8.238-5.19-9.812-5.169c-1.575,0.021-3.126,4.751-8.034,4.589c-7.782-0.258-6.842-8.739-8.795-9.1
		s-2.446,5.442-10.631,3.125c-4.817-1.364-5.416-7.978-7.424-8.659c-2.005-0.681-7.664,2.008-10.267,1.526
		c-2.605-0.48-1.495-8.355,3.714-7.396c5.208,0.962,6.82-1.837,6.82-1.837s1.148-7.065,3.893-10.476
		c2.745-3.41,13.389-8.37,13.389-8.37s1.551,4.024,6.296,7.209c2.373,1.593,5.501,2.317,7.557,2.704
		c5.757,1.086,15.687-1.415,15.687-1.415l8.073-3.839l20.512-1.44L125.636,128.891z"/>
	
		<path clip-path="url(#SVGID_2_)" fill="none" stroke="#000000" stroke-width="3.1" stroke-linecap="round" stroke-miterlimit="10" d="
		M125.636,128.891c0,0-1.032,7.316,2.916,9.92c2.058,1.357,9.145,5.735-3.676,12.037c-2.576,1.266-3.14-7.034-7.498-7.735
		c-4.358-0.699-0.938,3.258-6.698,2.844c-5.758-0.412-5.521-7.161-9.432-7.263c-3.908-0.098-2.534,4.614-7.059,4.203
		c-4.523-0.412-8.235-9.508-11.562-9.708c-3.331-0.2-4.149,5.213-6.755,4.732c-2.603-0.48-4.391-3.745-6.995-4.226
		c-2.605-0.48,10.648,1.978,4.517,1.155c-6.131-0.82-8.238-5.19-9.812-5.169c-1.575,0.021-3.126,4.751-8.034,4.589
		c-7.782-0.258-6.842-8.739-8.795-9.1s-2.446,5.442-10.631,3.125c-4.817-1.364-5.416-7.978-7.424-8.659
		c-2.005-0.681-7.664,2.008-10.267,1.526c-2.605-0.48-1.495-8.355,3.714-7.396c5.208,0.962,6.82-1.837,6.82-1.837
		s1.148-7.065,3.893-10.476c2.745-3.41,13.389-8.37,13.389-8.37s1.551,4.024,6.296,7.209c2.373,1.593,5.501,2.317,7.557,2.704
		c5.757,1.086,15.687-1.415,15.687-1.415l8.073-3.839l20.512-1.44L125.636,128.891z"/>
	<path clip-path="url(#SVGID_2_)" d="M82.809,67.306c0,1.277-1.035,2.306-2.307,2.306c-1.276,0-2.306-1.029-2.306-2.306
		c0-1.271,1.029-2.3,2.306-2.3C81.773,65.006,82.809,66.035,82.809,67.306"/>
	<path clip-path="url(#SVGID_2_)" fill="#FF0000" d="M112.029,124.186c0.494-5.883-8.743-26.14-15.796-26.218
		c-0.028-0.001-8.488,14.322-9.855,14.543c-1.433,0.23-1.108-24.562,1.821-31.721c1.809-4.417,6.784,0.689,9.259,2.823
		c0.485,0.417,19.984-3.753,24.5,0.845c6.27,6.384,4.908,38.853,0.827,45.208C122.6,129.953,119.624,126.277,112.029,124.186"/>
	<path clip-path="url(#SVGID_2_)" fill="none" stroke="#000000" stroke-width="1.86" stroke-miterlimit="10" d="M112.029,124.186
		c0.494-5.883-8.743-26.14-15.796-26.218c-0.028-0.001-8.488,14.322-9.855,14.543c-1.433,0.23-1.108-24.562,1.821-31.721
		c1.809-4.417,6.784,0.689,9.259,2.823c0.485,0.417,19.984-3.753,24.5,0.845c6.27,6.384,4.908,38.853,0.827,45.208
		C122.6,129.953,119.624,126.277,112.029,124.186z"/>
	<polygon clip-path="url(#SVGID_2_)" fill="#AA662B" points="-25.335,74.917 -33.144,67.108 -22.664,51.283 -9.512,64.437 	"/>
	<polygon clip-path="url(#SVGID_2_)" fill="none" stroke="#000000" stroke-width="1.614" stroke-miterlimit="10" points="
		-25.335,74.917 -33.144,67.108 -22.664,51.283 -9.512,64.437 	"/>
	<path clip-path="url(#SVGID_2_)" d="M-26.132,55.09c-0.423,0.423-1.111,0.423-1.535,0c-0.423-0.424-0.423-1.111,0-1.534
		c0.424-0.424,1.112-0.424,1.535,0C-25.708,53.979-25.708,54.667-26.132,55.09"/>
	<path clip-path="url(#SVGID_2_)" d="M-28.583,58.857c-0.423,0.423-1.111,0.423-1.535,0c-0.423-0.423-0.423-1.111,0-1.534
		c0.424-0.425,1.111-0.424,1.535,0C-28.16,57.746-28.159,58.433-28.583,58.857"/>
	<path clip-path="url(#SVGID_2_)" d="M-31.052,62.661c-0.423,0.423-1.111,0.423-1.535,0c-0.423-0.424-0.423-1.111,0-1.534
		c0.424-0.424,1.112-0.424,1.535,0C-30.629,61.55-30.629,62.237-31.052,62.661"/>
	<path clip-path="url(#SVGID_2_)" d="M-13.358,67.864c-0.423,0.423-0.423,1.111,0,1.534c0.424,0.424,1.111,0.424,1.534,0
		c0.424-0.423,0.424-1.111,0-1.534C-12.248,67.44-12.935,67.44-13.358,67.864"/>
	<path clip-path="url(#SVGID_2_)" d="M-17.125,70.315c-0.423,0.423-0.423,1.111,0,1.535c0.423,0.423,1.111,0.423,1.534,0
		c0.424-0.424,0.424-1.111,0-1.535C-16.014,69.892-16.701,69.891-17.125,70.315"/>
	<path clip-path="url(#SVGID_2_)" d="M-20.929,72.784c-0.423,0.423-0.423,1.111,0,1.535c0.424,0.423,1.111,0.423,1.534,0
		c0.424-0.424,0.424-1.112,0-1.535C-19.817,72.361-20.504,72.361-20.929,72.784"/>
	<path clip-path="url(#SVGID_2_)" fill="#FFFFFF" d="M-19.971,57.703c-0.424-0.423-1.111-0.423-1.535,0l-7.891,7.891l0.013,0.013
		c-0.049,0.035-0.097,0.072-0.141,0.116c-0.424,0.423-0.424,1.111,0,1.534c0.423,0.424,1.111,0.424,1.534,0
		c0.044-0.044,0.081-0.092,0.116-0.141l0.013,0.013l7.891-7.891C-19.548,58.814-19.548,58.126-19.971,57.703"/>
	<path clip-path="url(#SVGID_2_)" fill="none" stroke="#1E120D" stroke-width="0.62" stroke-miterlimit="10" d="M-19.971,57.703
		c-0.424-0.423-1.111-0.423-1.535,0l-7.891,7.891l0.013,0.013c-0.049,0.035-0.097,0.072-0.141,0.116
		c-0.424,0.423-0.424,1.111,0,1.534c0.423,0.424,1.111,0.424,1.534,0c0.044-0.044,0.081-0.092,0.116-0.141l0.013,0.013l7.891-7.891
		C-19.548,58.814-19.548,58.126-19.971,57.703z"/>
	<path clip-path="url(#SVGID_2_)" fill="#FFFFFF" d="M-15.931,61.743c-0.424-0.423-1.111-0.424-1.535,0l-7.891,7.891l0.013,0.013
		c-0.049,0.035-0.097,0.072-0.141,0.116c-0.424,0.423-0.424,1.111,0,1.534c0.423,0.424,1.111,0.424,1.534,0
		c0.044-0.044,0.081-0.092,0.116-0.141l0.013,0.013l7.891-7.891C-15.507,62.854-15.507,62.167-15.931,61.743"/>
	<path clip-path="url(#SVGID_2_)" fill="none" stroke="#1E120D" stroke-width="0.62" stroke-miterlimit="10" d="M-15.931,61.743
		c-0.424-0.423-1.111-0.424-1.535,0l-7.891,7.891l0.013,0.013c-0.049,0.035-0.097,0.072-0.141,0.116
		c-0.424,0.423-0.424,1.111,0,1.534c0.423,0.424,1.111,0.424,1.534,0c0.044-0.044,0.081-0.092,0.116-0.141l0.013,0.013l7.891-7.891
		C-15.507,62.854-15.507,62.167-15.931,61.743z"/>
	<path clip-path="url(#SVGID_2_)" fill="#FF0000" d="M139.603,72.752c0,2.912-2.361,5.272-5.271,5.272
		c-2.913,0-5.274-2.36-5.274-5.272s2.361-5.272,5.274-5.272C137.241,67.48,139.603,69.84,139.603,72.752"/>
	
		<circle clip-path="url(#SVGID_2_)" fill="none" stroke="#000000" stroke-width="1.24" stroke-miterlimit="10" cx="134.33" cy="72.752" r="5.273"/>
	<path clip-path="url(#SVGID_2_)" fill="#FF0000" d="M134.331,78.413c-7.765,0-14.061,5.901-14.061,13.18
		c0,7.28,6.296,13.182,14.061,13.182c7.764,0,14.06-5.902,14.06-13.182C148.391,84.313,142.095,78.413,134.331,78.413
		 M134.331,94.885c-3.885,0-7.03-2.95-7.03-6.59c0-3.64,3.146-6.591,7.03-6.591c3.881,0,7.029,2.951,7.029,6.591
		C141.36,91.935,138.212,94.885,134.331,94.885"/>
	<path clip-path="url(#SVGID_2_)" fill="none" stroke="#000000" stroke-width="1.24" stroke-miterlimit="10" d="M134.331,78.413
		c-7.765,0-14.061,5.901-14.061,13.18c0,7.28,6.296,13.182,14.061,13.182c7.764,0,14.06-5.902,14.06-13.182
		C148.391,84.313,142.095,78.413,134.331,78.413z M134.331,94.885c-3.885,0-7.03-2.95-7.03-6.59c0-3.64,3.146-6.591,7.03-6.591
		c3.881,0,7.029,2.951,7.029,6.591C141.36,91.935,138.212,94.885,134.331,94.885z"/>
	<path clip-path="url(#SVGID_2_)" fill="#FF0000" d="M85.703,99.941c0,1.213-0.984,2.197-2.197,2.197s-2.197-0.984-2.197-2.197
		c0-1.213,0.984-2.197,2.197-2.197S85.703,98.728,85.703,99.941"/>
	
		<circle clip-path="url(#SVGID_2_)" fill="none" stroke="#000000" stroke-width="1.24" stroke-miterlimit="10" cx="83.506" cy="99.941" r="2.197"/>
	<path clip-path="url(#SVGID_2_)" fill="#FF0000" d="M81.059,102.844c0,1.456-1.181,2.636-2.636,2.636
		c-1.457,0-2.636-1.18-2.636-2.636s1.18-2.636,2.636-2.636C79.878,100.208,81.059,101.388,81.059,102.844"/>
	
		<circle clip-path="url(#SVGID_2_)" fill="none" stroke="#000000" stroke-width="1.24" stroke-miterlimit="10" cx="78.423" cy="102.844" r="2.636"/>
	<path clip-path="url(#SVGID_2_)" fill="#FF0000" d="M75.461,104.983c0,1.456-1.181,2.636-2.636,2.636
		c-1.457,0-2.636-1.18-2.636-2.636s1.179-2.637,2.636-2.637C74.28,102.347,75.461,103.527,75.461,104.983"/>
	
		<circle clip-path="url(#SVGID_2_)" fill="none" stroke="#000000" stroke-width="1.24" stroke-miterlimit="10" cx="72.825" cy="104.983" r="2.636"/>
	<path clip-path="url(#SVGID_2_)" fill="#FF0000" d="M69.569,105.788c0,1.698-1.378,3.075-3.075,3.075
		c-1.699,0-3.076-1.377-3.076-3.075c0-1.699,1.377-3.076,3.076-3.076C68.191,102.712,69.569,104.089,69.569,105.788"/>
	
		<circle clip-path="url(#SVGID_2_)" fill="none" stroke="#000000" stroke-width="1.24" stroke-miterlimit="10" cx="66.493" cy="105.788" r="3.075"/>
	<path clip-path="url(#SVGID_2_)" fill="#FF0000" d="M62.578,106.359c0,1.94-1.574,3.515-3.515,3.515
		c-1.942,0-3.515-1.574-3.515-3.515c0-1.942,1.573-3.516,3.515-3.516C61.004,102.844,62.578,104.417,62.578,106.359"/>
	
		<circle clip-path="url(#SVGID_2_)" fill="none" stroke="#000000" stroke-width="1.24" stroke-miterlimit="10" cx="59.063" cy="106.359" r="3.515"/>
	<path clip-path="url(#SVGID_2_)" fill="#FF0000" d="M55.547,103.27c0,1.697-1.378,3.074-3.076,3.074
		c-1.699,0-3.075-1.377-3.075-3.074c0-1.699,1.376-3.076,3.075-3.076C54.169,100.193,55.547,101.57,55.547,103.27"/>
	
		<circle clip-path="url(#SVGID_2_)" fill="none" stroke="#000000" stroke-width="1.24" stroke-miterlimit="10" cx="52.472" cy="103.27" r="3.075"/>
	<path clip-path="url(#SVGID_2_)" fill="#FF0000" d="M49.782,98.947c0,1.456-1.18,2.636-2.636,2.636
		c-1.457,0-2.636-1.18-2.636-2.636s1.179-2.636,2.636-2.636C48.603,96.312,49.782,97.491,49.782,98.947"/>
	
		<circle clip-path="url(#SVGID_2_)" fill="none" stroke="#000000" stroke-width="1.24" stroke-miterlimit="10" cx="47.146" cy="98.947" r="2.636"/>
	<polygon clip-path="url(#SVGID_2_)" fill="#FF0000" points="78.318,49.896 79.167,53.642 77.712,54.891 79.167,56.014 
		79.894,57.325 81.226,57.325 82.317,58.012 84.499,58.012 84.923,58.699 86.499,58.699 87.265,61.734 89.893,58.248 90.309,58.551 
		92.06,55.53 91.712,54.484 90.242,53.447 89.879,51.901 87.947,52.51 87.458,50.157 84.136,51.894 82.924,50.208 81.288,51.207 	
		"/>
	
		<polygon clip-path="url(#SVGID_2_)" fill="none" stroke="#000000" stroke-width="0.93" stroke-linecap="round" stroke-linejoin="round" stroke-miterlimit="10" points="
		78.318,49.896 79.167,53.642 77.712,54.891 79.167,56.014 79.894,57.325 81.226,57.325 82.317,58.012 84.499,58.012 84.923,58.699 
		86.499,58.699 87.265,61.734 89.893,58.248 90.309,58.551 92.06,55.53 91.712,54.484 90.242,53.447 89.879,51.901 87.947,52.51 
		87.458,50.157 84.136,51.894 82.924,50.208 81.288,51.207 	"/>
	<polygon clip-path="url(#SVGID_2_)" fill="#FF0000" points="92.075,54.484 92.317,55.639 90.499,58.698 91.84,60.453 
		92.862,59.073 94.802,59.884 95.293,58.461 96.136,59.385 96.74,58.074 97.832,58.449 98.317,56.888 100.38,57.184 99.286,55.452 
		101.529,55.889 101.529,55.14 102.803,55.389 101.651,53.079 103.348,53.454 102.681,50.77 103.348,49.895 101.712,48.709 
		101.772,47.335 98.62,48.272 96.62,48.959 96.924,52.642 95.105,51.581 94.075,53.204 93.407,55.327 	"/>
	
		<polygon clip-path="url(#SVGID_2_)" fill="none" stroke="#000000" stroke-width="0.93" stroke-linecap="round" stroke-linejoin="round" stroke-miterlimit="10" points="
		92.075,54.484 92.317,55.639 90.499,58.698 91.84,60.453 92.862,59.073 94.802,59.884 95.293,58.461 96.136,59.385 96.74,58.074 
		97.832,58.449 98.317,56.888 100.38,57.184 99.286,55.452 101.529,55.889 101.529,55.14 102.803,55.389 101.651,53.079 
		103.348,53.454 102.681,50.77 103.348,49.895 101.712,48.709 101.772,47.335 98.62,48.272 96.62,48.959 96.924,52.642 
		95.105,51.581 94.075,53.204 93.407,55.327 	"/>
	<polygon clip-path="url(#SVGID_2_)" fill="#FF0000" points="93.241,54.921 94.81,51.479 93.561,47.96 94.983,45.462 94.983,43.652 
		92.862,44.463 92.5,43.652 91.408,44.588 90.5,43.652 89.712,44.588 89.166,43.902 88.5,45.15 87.712,45.899 88.62,47.335 
		90.561,47.57 91.348,48.568 92.317,48.334 91.348,49.896 92.62,49.896 92.137,52.08 	"/>
	
		<polygon clip-path="url(#SVGID_2_)" fill="none" stroke="#000000" stroke-width="0.93" stroke-linecap="round" stroke-linejoin="round" stroke-miterlimit="10" points="
		93.241,54.921 94.81,51.479 93.561,47.96 94.983,45.462 94.983,43.652 92.862,44.463 92.5,43.652 91.408,44.588 90.5,43.652 
		89.712,44.588 89.166,43.902 88.5,45.15 87.712,45.899 88.62,47.335 90.561,47.57 91.348,48.568 92.317,48.334 91.348,49.896 
		92.62,49.896 92.137,52.08 	"/>
	<polygon clip-path="url(#SVGID_2_)" fill="#FF0000" points="92.787,54.64 90.499,53.469 89.894,51.207 89.045,52.408 88.2,52.075 
		87.712,49.896 86.924,49.896 86.378,48.896 86.742,47.71 87.408,47.71 87.712,47.335 88.619,47.835 90.499,47.772 91.713,48.717 
		91.348,50.146 92.354,50.215 91.9,52.205 	"/>
	
		<polygon clip-path="url(#SVGID_2_)" fill="none" stroke="#000000" stroke-width="0.93" stroke-linecap="round" stroke-linejoin="round" stroke-miterlimit="10" points="
		92.787,54.64 90.499,53.469 89.894,51.207 89.045,52.408 88.2,52.075 87.712,49.896 86.924,49.896 86.378,48.896 86.742,47.71 
		87.408,47.71 87.712,47.335 88.619,47.835 90.499,47.772 91.713,48.717 91.348,50.146 92.354,50.215 91.9,52.205 	"/>
	<polygon clip-path="url(#SVGID_2_)" fill="#FF0000" points="104.333,44.245 103.348,45.556 101.833,45.884 102.15,47.335 
		102.104,48.272 103.348,49.63 103.082,50.895 103.348,52.44 104.833,52.112 106.833,49.348 105.286,48.896 105.56,47.757 
		104.879,47.71 105.333,46.118 104.333,45.837 	"/>
	
		<polygon clip-path="url(#SVGID_2_)" fill="none" stroke="#000000" stroke-width="0.93" stroke-linecap="round" stroke-linejoin="round" stroke-miterlimit="10" points="
		104.333,44.245 103.348,45.556 101.833,45.884 102.15,47.335 102.104,48.272 103.348,49.63 103.082,50.895 103.348,52.44 
		104.833,52.112 106.833,49.348 105.286,48.896 105.56,47.757 104.879,47.71 105.333,46.118 104.333,45.837 	"/>
	<polygon clip-path="url(#SVGID_2_)" fill="#FF0000" points="105.514,52.206 106.151,52.955 106.833,52.955 106.833,54.142 
		107.514,54.484 106.014,56.419 104.333,56.794 105.333,57.45 103.149,58.387 103.787,59.604 101.832,60.4 101.47,61.757 
		100.242,61.382 100.242,62.694 99.378,62.179 98.924,63.303 97.332,62.226 97.332,65.128 95.242,63.396 94.56,64.287 
		92.288,62.694 91.105,63.678 87.712,61.71 89.969,58.667 91.712,60.587 93.077,59.164 94.984,60.259 95.56,59.074 96.469,59.884 
		96.924,58.667 97.969,58.667 98.787,57.263 100.741,57.543 100.242,56.139 101.832,56.278 101.832,55.39 103.348,55.67 
		102.139,53.458 103.797,53.597 103.348,52.697 104.409,52.206 	"/>
	
		<polygon clip-path="url(#SVGID_2_)" fill="none" stroke="#000000" stroke-width="0.93" stroke-linecap="round" stroke-linejoin="round" stroke-miterlimit="10" points="
		105.514,52.206 106.151,52.955 106.833,52.955 106.833,54.142 107.514,54.484 106.014,56.419 104.333,56.794 105.333,57.45 
		103.149,58.387 103.787,59.604 101.832,60.4 101.47,61.757 100.242,61.382 100.242,62.694 99.378,62.179 98.924,63.303 
		97.332,62.226 97.332,65.128 95.242,63.396 94.56,64.287 92.288,62.694 91.105,63.678 87.712,61.71 89.969,58.667 91.712,60.587 
		93.077,59.164 94.984,60.259 95.56,59.074 96.469,59.884 96.924,58.667 97.969,58.667 98.787,57.263 100.741,57.543 
		100.242,56.139 101.832,56.278 101.832,55.39 103.348,55.67 102.139,53.458 103.797,53.597 103.348,52.697 104.409,52.206 	"/>
	<polygon clip-path="url(#SVGID_2_)" fill="#FF0000" points="89.741,39.282 90.499,39.469 91.348,38.767 92.016,39.469 
		92.605,38.767 93.741,39.984 94.287,39.984 94.741,40.64 94.196,41.998 93.105,40.827 92.469,41.998 92.016,41.577 90.366,42.455 
		89.195,41.155 88.832,39.938 	"/>
	
		<polygon clip-path="url(#SVGID_2_)" fill="none" stroke="#000000" stroke-width="0.93" stroke-linecap="round" stroke-linejoin="round" stroke-miterlimit="10" points="
		89.741,39.282 90.499,39.469 91.348,38.767 92.016,39.469 92.605,38.767 93.741,39.984 94.287,39.984 94.741,40.64 94.196,41.998 
		93.105,40.827 92.469,41.998 92.016,41.577 90.366,42.455 89.195,41.155 88.832,39.938 	"/>
	<polygon clip-path="url(#SVGID_2_)" fill="#FF0000" points="88.061,40.5 87.288,39.469 85.788,39.094 84.287,39.797 82.742,40.5 
		83.561,41.716 84.969,42.231 85.742,43.168 86.378,41.529 87.712,41.999 	"/>
	
		<polygon clip-path="url(#SVGID_2_)" fill="none" stroke="#000000" stroke-width="0.93" stroke-linecap="round" stroke-linejoin="round" stroke-miterlimit="10" points="
		88.061,40.5 87.288,39.469 85.788,39.094 84.287,39.797 82.742,40.5 83.561,41.716 84.969,42.231 85.742,43.168 86.378,41.529 
		87.712,41.999 	"/>
	<line clip-path="url(#SVGID_2_)" fill="#FF0000" x1="90.742" y1="42.606" x2="91.787" y2="41.998"/>
	
		<line clip-path="url(#SVGID_2_)" fill="none" stroke="#000000" stroke-width="0.93" stroke-linecap="round" stroke-linejoin="round" stroke-miterlimit="10" x1="90.742" y1="42.606" x2="91.787" y2="41.998"/>
	<polygon clip-path="url(#SVGID_2_)" fill="#FF0000" points="90.742,43.355 91.348,44.058 92.561,43.355 92.979,44.041 
		94.983,43.168 95.287,45.417 96.561,44.292 96.561,41.997 94.983,40.5 94.106,41.576 93.24,41.131 92.015,41.997 90.5,42.606 	"/>
	
		<polygon clip-path="url(#SVGID_2_)" fill="none" stroke="#000000" stroke-width="0.93" stroke-linecap="round" stroke-linejoin="round" stroke-miterlimit="10" points="
		90.742,43.355 91.348,44.058 92.561,43.355 92.979,44.041 94.983,43.168 95.287,45.417 96.561,44.292 96.561,41.997 94.983,40.5 
		94.106,41.576 93.24,41.131 92.015,41.997 90.5,42.606 	"/>
	<polygon clip-path="url(#SVGID_2_)" fill="#FF0000" points="96.674,52.088 96.331,48.834 98.129,47.968 98.832,45.791 
		97.354,46.048 96.128,46.75 95.196,46.166 93.9,47.944 93.9,49.442 94.355,51.176 	"/>
	
		<polygon clip-path="url(#SVGID_2_)" fill="none" stroke="#000000" stroke-width="0.93" stroke-linecap="round" stroke-linejoin="round" stroke-miterlimit="10" points="
		96.674,52.088 96.331,48.834 98.129,47.968 98.832,45.791 97.354,46.048 96.128,46.75 95.196,46.166 93.9,47.944 93.9,49.442 
		94.355,51.176 	"/>
	<polygon clip-path="url(#SVGID_2_)" fill="#FF0000" points="100.711,43.434 101.438,44.246 102.349,43.652 102.349,44.745 
		101.528,45.416 101.651,46.806 98.59,47.834 99.438,45.416 98.59,45.12 98.074,43.652 99.014,43.652 99.287,42.607 100.409,43.169 
			"/>
	
		<polygon clip-path="url(#SVGID_2_)" fill="none" stroke="#000000" stroke-width="0.93" stroke-linecap="round" stroke-linejoin="round" stroke-miterlimit="10" points="
		100.711,43.434 101.438,44.246 102.349,43.652 102.349,44.745 101.528,45.416 101.651,46.806 98.59,47.834 99.438,45.416 
		98.59,45.12 98.074,43.652 99.014,43.652 99.287,42.607 100.409,43.169 	"/>
	<polygon clip-path="url(#SVGID_2_)" fill="#FF0000" points="99.954,41.498 98.408,41.311 97.612,40.936 96.924,41.654 
		96.924,44.464 95.318,45.65 96.045,46.274 97.166,45.619 98.651,45.416 98.075,44.432 99.317,42.232 	"/>
	
		<polygon clip-path="url(#SVGID_2_)" fill="none" stroke="#000000" stroke-width="0.93" stroke-linecap="round" stroke-linejoin="round" stroke-miterlimit="10" points="
		99.954,41.498 98.408,41.311 97.612,40.936 96.924,41.654 96.924,44.464 95.318,45.65 96.045,46.274 97.166,45.619 98.651,45.416 
		98.075,44.432 99.317,42.232 	"/>
	<polygon clip-path="url(#SVGID_2_)" fill="#FF0000" points="88.53,41.131 89.985,42.232 90.227,43.309 89.73,44.116 89.106,43.168 
		88.39,44.995 87.288,45.791 85.682,43.651 86.591,41.998 87.591,42.302 	"/>
	
		<polygon clip-path="url(#SVGID_2_)" fill="none" stroke="#000000" stroke-width="0.93" stroke-linecap="round" stroke-linejoin="round" stroke-miterlimit="10" points="
		88.53,41.131 89.985,42.232 90.227,43.309 89.73,44.116 89.106,43.168 88.39,44.995 87.288,45.791 85.682,43.651 86.591,41.998 
		87.591,42.302 	"/>
	<polygon clip-path="url(#SVGID_2_)" fill="#FF0000" points="84.765,42.489 83.803,42.231 82.53,40.937 82.045,42.302 
		80.529,42.302 80.743,43.963 79.682,43.604 77.047,46.087 77.318,47.335 75.743,47.335 76.197,48.342 75.077,49.083 76.804,49.771 
		77.984,49.248 81.166,50.77 83.046,49.739 84.317,51.332 86.621,50.083 86.095,48.634 87.151,47.335 88.22,47.335 	"/>
	
		<polygon clip-path="url(#SVGID_2_)" fill="none" stroke="#000000" stroke-width="0.93" stroke-linecap="round" stroke-linejoin="round" stroke-miterlimit="10" points="
		84.765,42.489 83.803,42.231 82.53,40.937 82.045,42.302 80.529,42.302 80.743,43.963 79.682,43.604 77.047,46.087 77.318,47.335 
		75.743,47.335 76.197,48.342 75.077,49.083 76.804,49.771 77.984,49.248 81.166,50.77 83.046,49.739 84.317,51.332 86.621,50.083 
		86.095,48.634 87.151,47.335 88.22,47.335 	"/>
	<polygon clip-path="url(#SVGID_2_)" fill="#FF0000" points="74.356,49.548 75.163,49.735 76.799,50.145 77.891,49.665 
		78.187,51.445 78.731,53.399 77.196,54.816 78.855,56.279 79.629,57.66 75.471,57.976 74.605,57.075 72.97,56.388 72.363,55.374 
		74.484,54.905 74.029,53.762 72.651,52.3 74.182,51.144 	"/>
	
		<polygon clip-path="url(#SVGID_2_)" fill="none" stroke="#000000" stroke-width="0.93" stroke-linecap="round" stroke-linejoin="round" stroke-miterlimit="10" points="
		74.356,49.548 75.163,49.735 76.799,50.145 77.891,49.665 78.187,51.445 78.731,53.399 77.196,54.816 78.855,56.279 79.629,57.66 
		75.471,57.976 74.605,57.075 72.97,56.388 72.363,55.374 74.484,54.905 74.029,53.762 72.651,52.3 74.182,51.144 	"/>
	<polygon clip-path="url(#SVGID_2_)" fill="#FF0000" points="75.996,58.351 76.711,59.916 78.379,59.916 78.076,62.007 
		80.985,60.914 80.985,62.257 82.742,61.603 84.075,62.819 85.864,63.1 87.038,62.343 86.146,59.073 84.742,59.229 84.318,58.293 
		82.287,58.468 81.136,57.637 80.105,57.637 78.98,58.257 	"/>
	
		<polygon clip-path="url(#SVGID_2_)" fill="none" stroke="#000000" stroke-width="0.93" stroke-linecap="round" stroke-linejoin="round" stroke-miterlimit="10" points="
		75.996,58.351 76.711,59.916 78.379,59.916 78.076,62.007 80.985,60.914 80.985,62.257 82.742,61.603 84.075,62.819 85.864,63.1 
		87.038,62.343 86.146,59.073 84.742,59.229 84.318,58.293 82.287,58.468 81.136,57.637 80.105,57.637 78.98,58.257 	"/>
	<path clip-path="url(#SVGID_2_)" d="M73.18,130c-0.639,0-1.234,0.192-1.817,0.583c-3.634,2.418-2.901,6.802-1.364,13.206
		c0.378,1.581,0.768,3.217,1.004,4.749c0.31,1.991,0.236,4.216,0.162,6.362c-0.112,3.341-0.223,6.789,1.214,8.275
		c0.627,0.651,1.613,0.969,2.995,0.969c7.031,0,8.426-7.379,8.482-7.694c0.012-0.063,0.024-0.131,0.043-0.199
		c1.37-4.34,1.779-7.85-0.006-13.962C82.752,138.178,77.321,130,73.18,130 M75.375,167.219c-2.232,0-3.987-0.639-5.207-1.902
		c-2.345-2.426-2.208-6.541-2.078-10.517c0.068-2.009,0.137-4.085-0.123-5.797c-0.218-1.4-0.577-2.907-0.956-4.501
		c-1.425-5.946-3.038-12.686,2.648-16.479c1.091-0.726,2.275-1.092,3.522-1.092c6.677,0,12.561,10.516,13.671,14.516
		c1.971,6.77,1.506,10.874,0.012,15.635C86.212,160.653,83.013,167.219,75.375,167.219"/>
	<path clip-path="url(#SVGID_2_)" d="M39.905,157.832L39.905,157.832c-0.59,0-1.247-0.087-1.941-0.254
		c-7.8-1.873-18.469-13.578-19.822-20.102c-0.6-2.913-0.042-5.61,1.563-7.588c1.426-1.743,3.572-2.747,5.902-2.747
		c2.096,0,4.223,0.788,6.157,2.275c3.794,2.921,10.23,15.718,11.625,18.892c0.576,1.321,1.723,5.288,0.118,7.75
		C42.973,156.865,41.92,157.832,39.905,157.832"/>
	<path clip-path="url(#SVGID_2_)" fill="#DE9B00" d="M84.802,156.07c0,0-1.434,8.364-9.325,8.364c-7.884,0-4.541-9.562-5.496-15.775
		c-0.954-6.213-4.778-14.34,0.955-18.162c5.739-3.824,12.669,7.408,13.866,11.709C86.474,147.942,86.237,151.53,84.802,156.07"/>
	<path clip-path="url(#SVGID_2_)" fill="#AA662B" d="M80.423,157.607c0,2.912-1.573,5.271-3.515,5.271
		c-1.941,0-3.515-2.359-3.515-5.271s1.574-0.931,3.515-0.931C78.85,156.677,80.423,154.695,80.423,157.607"/>
	<path clip-path="url(#SVGID_2_)" fill="none" stroke="#000000" stroke-width="1.413" stroke-miterlimit="10" d="M80.423,157.607
		c0,2.912-1.573,5.271-3.515,5.271c-1.941,0-3.515-2.359-3.515-5.271s1.574-0.931,3.515-0.931
		C78.85,156.677,80.423,154.695,80.423,157.607z"/>
	<path clip-path="url(#SVGID_2_)" fill="#AA662B" d="M79.726,157.607c0,2.912-1.574,5.271-3.515,5.271
		c-1.941,0-3.515-2.359-3.515-5.271s1.574-0.931,3.515-0.931C78.151,156.677,79.726,154.695,79.726,157.607"/>
	<path clip-path="url(#SVGID_2_)" fill="none" stroke="#000000" stroke-width="1.413" stroke-miterlimit="10" d="M79.726,157.607
		c0,2.912-1.574,5.271-3.515,5.271c-1.941,0-3.515-2.359-3.515-5.271s1.574-0.931,3.515-0.931
		C78.151,156.677,79.726,154.695,79.726,157.607z"/>
	<path clip-path="url(#SVGID_2_)" fill="#AA662B" d="M79.028,157.607c0,2.912-1.574,5.271-3.515,5.271s-3.515-2.359-3.515-5.271
		s1.574-0.931,3.515-0.931S79.028,154.695,79.028,157.607"/>
	<path clip-path="url(#SVGID_2_)" fill="none" stroke="#000000" stroke-width="1.413" stroke-miterlimit="10" d="M79.028,157.607
		c0,2.912-1.574,5.271-3.515,5.271s-3.515-2.359-3.515-5.271s1.574-0.931,3.515-0.931S79.028,154.695,79.028,157.607z"/>
	<path clip-path="url(#SVGID_2_)" fill="#AA662B" d="M78.331,157.607c0,2.912-1.574,5.271-3.515,5.271
		c-1.941,0-3.515-2.359-3.515-5.271s1.574-0.931,3.515-0.931C76.757,156.677,78.331,154.695,78.331,157.607"/>
	<path clip-path="url(#SVGID_2_)" fill="none" stroke="#000000" stroke-width="1.413" stroke-miterlimit="10" d="M78.331,157.607
		c0,2.912-1.574,5.271-3.515,5.271c-1.941,0-3.515-2.359-3.515-5.271s1.574-0.931,3.515-0.931
		C76.757,156.677,78.331,154.695,78.331,157.607z"/>
	<path clip-path="url(#SVGID_2_)" fill="#DE9B00" d="M24.864,129.777c-1.693,0-3.189,0.69-4.209,1.939
		c-1.185,1.457-1.586,3.519-1.116,5.793c1.204,5.808,11.517,17.058,18.503,18.737c0.539,0.127,1.02,0.189,1.439,0.189
		c1.089,0,1.496-0.425,1.704-0.747c0.856-1.3,0.368-4.14-0.304-5.68c-1.933-4.424-8.069-16.011-11.162-18.4
		C28.16,130.411,26.48,129.777,24.864,129.777"/>
	<path clip-path="url(#SVGID_2_)" fill="#AA662B" d="M36.938,146.255c1.836,2.261,2.104,5.085,0.596,6.309
		c-1.506,1.224-4.216,0.385-6.053-1.877c-1.836-2.26,0.635-1.714,2.142-2.938C35.129,146.524,35.102,143.994,36.938,146.255"/>
	<path clip-path="url(#SVGID_2_)" fill="none" stroke="#000000" stroke-width="1.413" stroke-miterlimit="10" d="M36.938,146.255
		c1.836,2.261,2.104,5.085,0.596,6.309c-1.506,1.224-4.216,0.385-6.053-1.877c-1.836-2.26,0.635-1.714,2.142-2.938
		C35.129,146.524,35.102,143.994,36.938,146.255z"/>
	<path clip-path="url(#SVGID_2_)" fill="#AA662B" d="M37.327,146.877c1.836,2.261,2.104,5.085,0.596,6.31
		c-1.506,1.223-4.216,0.385-6.053-1.877c-1.836-2.261,0.635-1.715,2.142-2.938C35.518,147.147,35.491,144.616,37.327,146.877"/>
	<path clip-path="url(#SVGID_2_)" fill="none" stroke="#000000" stroke-width="1.413" stroke-miterlimit="10" d="M37.327,146.877
		c1.836,2.261,2.104,5.085,0.596,6.31c-1.506,1.223-4.216,0.385-6.053-1.877c-1.836-2.261,0.635-1.715,2.142-2.938
		C35.518,147.147,35.491,144.616,37.327,146.877z"/>
	<path clip-path="url(#SVGID_2_)" fill="#AA662B" d="M38.386,147.832c1.836,2.261,2.104,5.085,0.596,6.309
		c-1.506,1.224-4.216,0.386-6.053-1.877c-1.836-2.26,0.635-1.714,2.142-2.938C36.577,148.102,36.55,145.571,38.386,147.832"/>
	<path clip-path="url(#SVGID_2_)" fill="none" stroke="#000000" stroke-width="1.413" stroke-miterlimit="10" d="M38.386,147.832
		c1.836,2.261,2.104,5.085,0.596,6.309c-1.506,1.224-4.216,0.386-6.053-1.877c-1.836-2.26,0.635-1.714,2.142-2.938
		C36.577,148.102,36.55,145.571,38.386,147.832z"/>
</g>
</svg>
